<?xml version="1.0" encoding="utf-8"?>
<!-- Generator: Adobe Illustrator 22.0.1, SVG Export Plug-In . SVG Version: 6.00 Build 0)  -->
<svg version="1.1" id="Logo" xmlns="http://www.w3.org/2000/svg" xmlns:xlink="http://www.w3.org/1999/xlink" x="0px" y="0px"
	 viewBox="0 0 831 285" style="enable-background:new 0 0 831 285;" xml:space="preserve">
<style type="text/css">
	.st0{fill:#2E2C45;stroke:#2E2C45;stroke-width:12;stroke-miterlimit:10;}
	.st1{fill:#F38174;}
	.st2{fill:#2E2C45;}
	.st3{fill:#CC6666;}
</style>
<title>Obszar roboczy 1</title>
<rect id="Box" x="80.5" y="28.9" class="st0" width="667.1" height="224"/>
<g id="Title">
	<path class="st1" d="M64.5,185.3c-4,0-7.2-1.1-9.6-3.2c-2.5-2.2-3.9-5.4-3.8-8.7c0.1-3.8,0.5-7.6,1.1-11.3c0.7-5,1.5-10.4,2.4-15.9
		s1.8-10.2,2.3-14.2c1-6.9,2.1-13.9,3.4-20.6s2.5-13.2,3.8-19.3c0.3-1.3,0.6-2.9,0.9-4.6l0.2-0.9c-5,0.2-10.1,0.8-15,1.9
		c-5.3,1.2-7.7,2.8-8.8,3.9c-1.4,1.4-2.1,3.4-2,5.4c0,2.4,0.7,4.7,2.1,6.6l0.1,0.1v0.1c0.7,1.2,1.1,2.6,1.1,4c0,2.1-0.8,5.2-4.7,8
		c-2.5,1.9-5.5,3-8.7,3c-2.4,0-4.6-0.8-6.4-2.3c-2.4-2.2-4.3-4.9-5.5-8c-1.4-3.6-2.1-7.4-2-11.2c0-8.8,2.9-16,8.8-21.4
		c5.5-5.1,13.8-8.9,24.7-11.2c10.4-2.2,24-3.3,40.2-3.3c9.9,0,18,0.2,24,0.5c5.4,0.3,10.7,0.9,16,1.8c3.1,0.5,6,1.8,8.3,3.9
		c2.1,2,3.3,4.8,3.2,7.6c0,4.2-1.3,7.5-4,9.6c-2.1,1.7-5.1,2.6-8.7,2.6c-0.6,0-1.3,0-2-0.1c-8.1-0.6-14.4-1.1-18.9-1.3
		c-3.8-0.2-8.6-0.3-14.4-0.4c-3.1,15.4-5.9,31.1-8.5,46.6c-1,6-2,13.1-3.1,21.2c-1.1,8-1.8,14.5-2.1,19.3c-0.2,3.6-2,6.9-4.9,9
		C71.2,184.4,67.9,185.4,64.5,185.3z"/>
	<path class="st2" d="M89.1,66.1c9.9,0,17.8,0.2,23.7,0.5c5.2,0.3,10.4,0.9,15.5,1.8c2.3,0.3,4.5,1.3,6.3,2.8
		c1.3,1.2,2.1,2.9,2.1,4.7c0,3-0.8,5.1-2.5,6.5c-1.4,1.1-3.4,1.7-6.2,1.7c-0.5,0-1.1,0-1.7-0.1c-8.1-0.6-14.4-1.1-19-1.3
		s-10.5-0.4-17.9-0.5c-3.3,16.6-6.4,33.2-9.2,50c-1,6.1-2,13.2-3.1,21.3s-1.8,14.6-2.2,19.5c-0.1,2.4-1.3,4.6-3.2,6
		c-2.1,1.4-4.6,2.2-7.2,2.1c-3,0-5.3-0.7-6.9-2.2c-1.6-1.4-2.5-3.5-2.4-5.7c0.1-3.6,0.5-7.2,1-10.8c0.7-5,1.5-10.2,2.4-15.8
		s1.7-10.3,2.3-14.3c1-6.8,2.1-13.6,3.4-20.4C65.5,105.4,66.7,99,68,93c0.3-1.4,0.6-2.9,0.9-4.7s0.8-3.7,1.2-5.9
		c-8.8,0.3-15.8,1-20.8,2.2s-8.6,2.8-10.8,4.9c-2.1,2.2-3.3,5.1-3.2,8.2c0,3.1,1,6.2,2.7,8.8c0.4,0.6,0.5,1.3,0.5,2
		c0,1.7-1,3.3-3,4.8c-1.8,1.4-4,2.2-6.3,2.2c-1.4,0.1-2.7-0.4-3.8-1.4c-2-1.8-3.5-4-4.5-6.5c-1.2-3.1-1.8-6.4-1.8-9.7
		c0-7.7,2.5-13.8,7.5-18.5c5-4.6,12.6-8,22.9-10.2C60,67.2,73.1,66.1,89.1,66.1 M89.1,58.1c-16.5,0-30.3,1.1-41.1,3.4
		C36.3,64,27.6,68,21.4,73.7C14.8,79.9,11.4,88,11.4,98c-0.1,4.4,0.7,8.7,2.4,12.7c1.4,3.6,3.7,6.9,6.6,9.5c2.5,2.2,5.7,3.4,9.1,3.3
		c4,0,7.8-1.4,11-3.8c5.2-3.8,6.3-8.2,6.3-11.2c0-2.1-0.5-4.2-1.6-6l-0.1-0.2l-0.1-0.2c-0.9-1.3-1.4-2.9-1.4-4.5
		c-0.1-0.9,0.2-1.9,0.8-2.5c0.4-0.4,1.9-1.6,6.9-2.8c3-0.6,6-1.1,9.1-1.4l-0.1,0.3c-1.3,6-2.5,12.6-3.8,19.3S54,124.5,53,131.5v0.1
		c-0.5,3.9-1.3,8.6-2.2,14v0.1c-0.9,5.5-1.7,10.9-2.4,16c-0.6,3.9-1,7.9-1.1,11.8c-0.1,4.4,1.8,8.7,5.1,11.7
		c3.1,2.8,7.2,4.2,12.2,4.2c4.2,0.1,8.3-1.2,11.8-3.6c4-2.8,6.4-7.2,6.6-12c0.3-4.7,1.1-11.1,2.1-19s2.1-15.1,3.1-21.1
		c2.4-14.3,5-28.9,7.8-43.2c4.3,0.1,8,0.2,11,0.4c4.4,0.2,10.7,0.6,18.8,1.3c0.8,0.1,1.6,0.1,2.3,0.1c4.6,0,8.4-1.2,11.2-3.5
		c2.5-2,5.5-5.9,5.5-12.7c0-4-1.6-7.8-4.5-10.5c-2.9-2.6-6.5-4.3-10.3-5h-0.1c-5.4-0.9-10.9-1.6-16.4-1.9
		c-6.1-0.4-14.2-0.6-24.2-0.6L89.1,58.1z"/>
	<path class="st1" d="M163.9,185.3c-5.8,0-10.3-1.8-13.4-5.3c-3-3.4-4.5-8.2-4.5-14.2c0-2.8,0.6-7.5,2-14.3c0.3-1.4,0.5-2.6,0.7-3.7
		c-1.6,2.8-3.1,5.6-4.4,8.6c-2.1,4.8-3.8,9.9-5.1,15c-2.1,8.9-8,13.9-16.6,13.9c-5.8,0-8.1-3.3-9-5.3c-1.1-2.5-1.6-6.3-1.6-12.1
		c0-2.9,0-5.2,0.1-7l0.1-10.7c0.1-14.8,1.5-29.6,4.3-44.1c2.9-15.4,7.3-28.5,13-39.1c6.3-11.6,14.2-17.4,23.4-17.4
		c5.3,0,10.3,2.6,13.3,7c3.1,4.2,4.6,9.7,4.6,16.2c0,9.7-2.9,19.9-8.5,30.2c-2.4,4.4-5.1,8.7-8.1,12.7c2.7-1.3,5.7-2,8.8-2.1
		c8,0,12.8,4.8,12.8,12.8c0,3.8-1,10.3-3.1,19.9c-2,9.4-2.5,13.2-2.5,14.7c0,0.5,0,0.9,0.1,1.4c0.4-0.1,1.6-0.5,3.5-2.3
		c3.4-3.2,6.6-6.7,9.5-10.3c1.6-2.1,4.1-3.3,6.7-3.3c2.5,0,4.9,1.3,6.2,3.5c1.2,2,1.7,4.3,1.6,6.6c0,4.6-1.2,8.3-3.5,11
		c-4,4.7-8.5,8.9-13.5,12.5C176,183.5,170,185.4,163.9,185.3z M149.7,72.9c-0.4,0.6-0.8,1.5-1.2,2.6c-2.3,5.9-4.2,11.9-5.5,18.1
		c-0.6,2.8-1.3,5.6-1.8,8.6c1.3-2.3,2.5-4.6,3.6-6.9c3.4-7.2,5.1-13.7,5.1-19.4C149.9,74.8,149.8,73.9,149.7,72.9z"/>
	<path class="st2" d="M153.1,53.5c4-0.1,7.8,2,10.1,5.3c2.6,3.6,3.9,8.2,3.9,13.9c0,9.1-2.7,18.5-8,28.3c-5.3,9.8-14,21.2-25.9,34.3
		c-0.3,4.7-0.4,9.5-0.4,14.5c2.4-6.7,5.8-13,9.9-18.7c3.6-4.8,7.2-8.3,10.8-10.3c2.9-1.9,6.3-3,9.8-3.1c5.9,0,8.8,2.9,8.8,8.8
		c0,3.5-1,9.9-3,19.1c-1.7,7.8-2.6,13-2.6,15.5c0,3.6,1.3,5.4,3.9,5.4c1.8,0,3.9-1.1,6.4-3.3c3.5-3.4,6.9-6.9,9.9-10.8
		c0.9-1.2,2.2-1.8,3.6-1.9c1.2,0,2.2,0.6,2.8,1.6c0.7,1.4,1.1,2.9,1,4.5c0,3.6-0.9,6.4-2.6,8.4c-3.8,4.4-8.1,8.4-12.8,11.8
		c-4.4,3.1-9.6,4.7-14.9,4.6c-4.6,0-8.1-1.3-10.4-4c-2.3-2.7-3.5-6.5-3.5-11.6c0-2.5,0.6-7,1.9-13.5c0.9-3.9,1.5-7.8,1.8-11.8
		c0-1.4-0.5-2.2-1.5-2.2c-1.2,0-2.8,1.5-5,4.5c-2.6,3.8-4.7,7.8-6.5,12c-2.2,5.1-4,10.3-5.3,15.7c-1.7,7.2-6,10.8-12.7,10.8
		c-2.7,0-4.4-1-5.3-2.9c-0.9-1.9-1.3-5.4-1.3-10.5c0-2.9,0-5.2,0.1-6.9l0.1-10.8c0.1-14.6,1.5-29.1,4.2-43.4
		c2.8-15,7-27.7,12.6-37.9C138.6,58.7,145.2,53.6,153.1,53.5 M134.5,118.4c5.6-6.5,10.2-13.7,13.9-21.5c3.7-7.7,5.5-14.8,5.5-21.1
		c0.1-2.2-0.2-4.5-0.9-6.6c-0.6-1.5-1.5-2.3-2.7-2.3c-1.6,0-3.4,2.3-5.4,7c-2.4,6.1-4.4,12.4-5.8,18.8
		C137,101.2,135.5,109.8,134.5,118.4 M153,45.6c-10.9,0-20,6.6-27,19.5c-5.9,10.9-10.4,24.5-13.4,40.2c-2.8,14.8-4.3,29.8-4.4,44.8
		l-0.1,10.6c-0.1,1.8-0.1,4.2-0.1,7.2c0,6.4,0.6,10.6,2,13.7c2.1,4.9,6.8,7.7,12.6,7.7c10.1,0,17.4-5.7,20.2-15.8
		c0.8,3.4,2.4,6.5,4.6,9.1c2.7,3,7.7,6.7,16.4,6.7c7,0.1,13.8-2,19.5-6c5.3-3.8,10-8.2,14.2-13.1c3-3.5,4.5-8.1,4.5-13.6
		c0.1-3.1-0.7-6.1-2.2-8.7c-2-3.4-5.6-5.4-9.6-5.4c-3.8,0-7.3,1.8-9.7,4.7l0,0l0,0c-1.8,2.2-3.5,4.1-4.9,5.7
		c0.3-1.6,0.7-3.5,1.2-5.8c2.2-10,3.2-16.6,3.2-20.8c0-10.2-6.5-16.8-16.7-16.8c1-1.6,1.9-3.2,2.8-4.7c5.9-10.9,9-21.7,9-32.1
		c0-7.4-1.8-13.6-5.4-18.5c-3.7-5.5-9.9-8.7-16.6-8.7L153,45.6z"/>
	<path class="st1" d="M208.5,185.3c-9.8,0-17.5-3-23.1-9.1s-8.2-13.9-8.2-23.7c0-6.6,1.4-13.2,4.3-19.1c2.7-5.8,7-10.7,12.2-14.4
		c5.3-3.6,11.6-5.5,18-5.4c6.3,0,11.5,2,15.4,5.8s5.9,9.1,5.9,15.5c0.1,6.5-2.3,12.7-6.6,17.5c1.4-1.2,3.3-1.9,5.2-1.9
		c2.5,0,4.9,1.3,6.2,3.5c1.1,2,1.7,4.3,1.6,6.6c0.1,3.7-0.9,7.4-3,10.6c-2.8,4.4-6.8,8-11.4,10.4
		C219.9,184.1,214.2,185.4,208.5,185.3z M207.6,163.4c0.9,0.2,1.9,0.3,2.9,0.3c2.4,0.1,4.8-0.5,6.8-1.8c2.8-2.2,5.3-4.8,7.4-7.7
		C220.7,158,215.1,161,207.6,163.4L207.6,163.4z M209.4,134.9c-0.7,0-2.7,0-5,3.9c-1.2,2.1-2,4.4-2.4,6.7c2-0.8,3.9-1.9,5.6-3.2
		c2.8-2.3,3.1-4.4,3.1-5.7c0-1-0.3-1.3-0.4-1.4S210.1,134.9,209.4,134.9L209.4,134.9z"/>
	<path class="st2" d="M211.7,117.6c5.2,0,9.4,1.6,12.6,4.7c3.2,3.1,4.7,7.3,4.7,12.6c0.1,6-2.3,11.8-6.7,16
		c-4.5,4.5-12.1,8-22.8,10.6c2.2,4.2,5.8,6.2,11,6.2c3.2,0.1,6.4-0.8,9.1-2.6c3.1-2.5,5.9-5.4,8.3-8.7c0.8-1.2,2.2-1.9,3.6-2
		c1.2,0,2.2,0.6,2.8,1.6c0.7,1.4,1.1,2.9,1,4.5c0.1,3-0.7,5.9-2.3,8.4c-2.5,3.8-5.9,6.9-9.9,9c-4.5,2.3-9.6,3.4-14.7,3.2
		c-8.7,0-15.4-2.6-20.1-7.8c-4.8-5.2-7.1-12.2-7.2-21c-0.1-6,1.3-12,3.9-17.4c2.5-5.1,6.2-9.5,10.9-12.7
		C200.6,119.2,206.1,117.5,211.7,117.6 M197.5,151c5.3-1.3,9.5-3.2,12.6-5.7c3.1-2.5,4.6-5.5,4.6-8.8c0.1-1.5-0.4-3-1.4-4.1
		c-1-1.1-2.4-1.6-3.9-1.5c-3.3,0-6.2,1.9-8.5,5.8c-2.4,4.3-3.6,9.1-3.5,14.1L197.5,151 M211.7,109.6c-7.2-0.1-14.3,2.1-20.2,6.1
		c-5.8,4-10.5,9.5-13.6,15.9c-3.2,6.5-4.8,13.6-4.7,20.9c0,10.9,3.1,19.8,9.3,26.4c6.3,6.9,15.1,10.3,26,10.3
		c6.4,0.1,12.7-1.3,18.4-4.2c5.2-2.7,9.7-6.8,12.9-11.8c2.4-3.8,3.7-8.2,3.6-12.7c0.1-3.1-0.7-6.1-2.2-8.7c-1.5-2.4-3.8-4.2-6.5-5
		c1.6-3.8,2.4-7.9,2.4-12c0-7.5-2.4-13.7-7.1-18.3S219.1,109.6,211.7,109.6L211.7,109.6z"/>
	<path class="st1" d="M291.5,191.3c-4.5,0-7.7-1.2-9.8-3.6s-2.7-5.3-2.5-9.2c1.9-27.2,6.5-54.2,13.8-80.6c0.8-3.2,3-5.8,5.9-7.3
		c2.9-1.3,6-1.8,9.1-1.7c11.1,0,12.2,6,12.2,8.6c0,1.9-0.4,3.8-1,5.6c-2.9,9.2-5.2,18.6-6.9,28.1c-2,10.4-3.5,20.4-4.5,30
		c2.4,0.2,4.5,0.2,6.2,0.2c11.8,0,20.4-1.6,25.7-4.9c4.7-2.9,7-6.4,7-10.6c0-2.7-1.3-5.3-3.6-6.9c-1.8-1.5-5.9-3.3-14.6-3.6
		c-3-0.1-5.2-1-6.6-2.7c-1.5-1.9-2.3-4.2-2.1-6.6c-0.1-3,0.7-6,2.3-8.6c1.3-1.9,3.9-4.2,9.1-4.4c5.5-0.1,11-1,16.2-2.6
		c4-1.2,7.6-3.3,10.6-6.2c2.2-2.1,3.4-5.1,3.4-8.1c0-3.8-1.8-6.6-5.7-8.9c-4.5-2.6-11.8-4-21.6-4c-9.1,0-18.1,1.2-26.9,3.6
		c-7.7,2-15.1,5-22,9c-3.6,2.1-6.6,3.1-9.4,3.1c-2.7,0.1-5.3-1.1-6.9-3.3c-1.4-1.9-2.2-4.3-2.1-6.7c0-2.7,0.6-5.4,2-7.8
		c1.3-2.3,4-4.5,8.3-7c8.7-4.8,18-8.4,27.7-10.6c10.5-2.5,21.3-3.8,32.2-3.8c17.3,0,30,2.9,38.8,9c9.1,6.3,13.8,14.7,13.8,25.1
		c0.1,8.5-3.2,16.6-9.2,22.6c-4.4,4.3-9.6,7.7-15.4,9.9c1.7,1.2,3.3,2.6,4.6,4.2c3.4,4.1,5.3,9.2,5.2,14.5
		c0.1,7.7-2.6,15.2-7.7,21.1c-4.9,5.8-12.1,10.2-21.3,13.3c-8.9,3-19.8,4.5-32.2,4.5c-3,0-5.5-0.1-7.7-0.2c-0.9,2-2.4,3.7-4.3,4.8
		C298.4,190.6,295,191.5,291.5,191.3z"/>
	<path class="st2" d="M336.9,64.1c16.3,0,28.5,2.7,36.5,8.2c8,5.5,12,12.8,12,21.8c0.1,7.4-2.8,14.6-8.1,19.8
		c-5.4,5.6-13.3,9.6-23.6,12c5.6,1.5,9.8,4,12.7,7.5c2.8,3.3,4.4,7.6,4.3,12c0.1,6.8-2.3,13.3-6.7,18.5c-4.5,5.2-11,9.3-19.5,12.1
		s-18.9,4.3-31,4.3c-4.5,0-8.1-0.1-10.8-0.4c0,2.3-1.2,4.5-3.2,5.7c-2.4,1.4-5.2,2-8,1.9c-3.2,0-5.5-0.7-6.7-2.2
		c-1.2-1.5-1.7-3.6-1.6-6.4c0.9-13.3,2.5-26.5,4.8-39.7c2.3-13.5,5.3-26.9,8.9-40.1c0.5-2.1,1.9-3.8,3.8-4.7c2.3-1,4.9-1.4,7.4-1.4
		c5.5,0,8.2,1.5,8.2,4.6c0,1.5-0.3,2.9-0.8,4.3c-2.9,9.4-5.3,18.9-7,28.6c-2.2,11.4-3.9,22.9-5,34.4c4.3,0.4,7.8,0.5,10.5,0.5
		c12.6,0,21.9-1.8,27.8-5.5c5.9-3.6,8.9-8.3,8.9-14c0-4-1.9-7.7-5.1-10c-3.4-2.7-9-4.2-17-4.5c-1.4,0.1-2.7-0.4-3.8-1.4
		c-0.8-1.1-1.2-2.5-1.1-3.9c-0.1-2.2,0.5-4.4,1.6-6.4c1.1-1.6,3.1-2.5,5.9-2.6c5.9-0.1,11.7-1,17.4-2.8c4.6-1.4,8.8-3.9,12.2-7.2
		c2.9-2.9,4.5-6.8,4.5-10.9c0-5.2-2.6-9.4-7.7-12.4s-13-4.5-23.6-4.5c-9.5,0-18.9,1.2-28,3.7c-8.1,2.1-15.8,5.2-23,9.4
		c-2.9,1.7-5.3,2.6-7.3,2.6c-1.4,0.1-2.8-0.5-3.7-1.7c-0.9-1.2-1.3-2.7-1.3-4.3c-0.1-2,0.4-4,1.4-5.8c0.9-1.6,3.2-3.5,6.8-5.5
		c8.4-4.6,17.3-8,26.6-10.1C315.9,65.3,326.4,64.1,336.9,64.1 M336.9,56.1c-11.1,0-22.2,1.3-33.1,3.9c-10.1,2.3-19.7,6-28.7,11
		c-5,2.9-8.1,5.5-9.8,8.5c-1.7,3-2.6,6.4-2.5,9.8c-0.1,3.3,1,6.5,2.9,9.1c2.4,3.1,6.1,4.9,10.1,4.8c3.5,0,7.2-1.2,11.4-3.7
		c0.5-0.3,1-0.6,1.5-0.9c-3.5,12.9-6.4,26-8.6,39.2c-2.3,13.4-3.9,26.9-4.8,40.5c-0.3,4.9,0.8,9,3.4,12c2.8,3.3,7.1,5,12.8,5
		c4.2,0.1,8.4-0.9,12.1-3.1c1.8-1.1,3.3-2.5,4.5-4.2c1.6,0,3.4,0.1,5.4,0.1c12.9,0,24.1-1.6,33.5-4.7c9.9-3.3,17.7-8.2,23.1-14.5
		c5.7-6.6,8.7-15,8.6-23.7c0.1-6.2-2.1-12.3-6.2-17.1c-0.2-0.2-0.4-0.4-0.5-0.6c4.1-2.1,7.8-4.9,11-8.1c6.7-6.7,10.5-15.9,10.4-25.4
		c0-11.6-5.4-21.4-15.5-28.4C368.4,59.2,355,56.1,336.9,56.1L336.9,56.1z M320.1,88.5c4.6-0.7,9.3-1,14-1c11.4,0,16.9,1.9,19.6,3.4
		c3.3,1.9,3.8,3.8,3.8,5.5c0,2-0.8,4-2.2,5.4c-2.5,2.4-5.6,4.2-9,5.2c-4.9,1.5-10,2.4-15.1,2.4c-5.2,0.2-8.5,2-10.6,4
		c0.9-3.3,1.7-6.3,2.6-8.9c0.8-2.2,1.2-4.5,1.2-6.9C324.3,94.1,322.7,90.7,320.1,88.5L320.1,88.5z M312.3,157.5
		c1-8.2,2.3-16.7,4-25.4l0.1-0.8c0.5,1.6,1.3,3,2.4,4.2c2.2,2.5,5.4,3.8,9.4,4h0.1c8.3,0.3,11.3,2,12.2,2.7c1.7,1.4,2.1,2.5,2.1,3.8
		c0,1.9-0.6,4.4-5.1,7.2c-3.1,1.9-9.8,4.3-23.6,4.3L312.3,157.5L312.3,157.5z"/>
	<path class="st1" d="M429.1,185.3c-3.9,0-7.7-1.4-10.7-4c-1.4-1.1-2.6-2.5-3.7-3.9c-4.8,5.2-10.5,7.9-17.1,7.9
		c-6.4,0.2-12.5-2.6-16.5-7.5c-3.9-4.8-5.9-11-5.9-18.5c0-7.8,1.9-15.4,5.4-22.3c3.4-6.8,8.4-12.6,14.6-17c5.8-4.2,12.8-6.6,20-6.6
		c3.2,0,5.5,0.8,7,2.5c0.6,0.7,1.1,1.5,1.5,2.4c1-0.1,2.1-0.1,3.2-0.1c9.8,0,10.6,6.7,10.6,8.7c0,1.4-0.2,4.4-2.1,14.3
		c-2,10.1-3,17.1-3,20.9c0,0.1,0,0.2,0,0.4c1.2-0.5,2.3-1.3,3.2-2.2c3.4-3.3,6.5-6.7,9.5-10.4c1.6-2.1,4.1-3.3,6.7-3.3
		c2.5,0,4.9,1.3,6.2,3.5c1.1,2,1.7,4.3,1.6,6.6c0,4.5-1.2,8.2-3.5,10.9c-3.6,4.6-7.8,8.7-12.4,12.2
		C438.7,183.4,433.8,185.3,429.1,185.3z M411.9,135.3c-1,0.5-1.9,1.2-2.7,1.9c-2.9,2.6-5.1,5.8-6.6,9.4c-1.7,4-2.6,8.4-2.5,12.8
		c0,2.5,0.5,3.4,0.8,3.7s0.6,0.6,1.6,0.6c0.6,0,1.5-0.7,2.5-2c1.6-2.3,2.7-4.9,3.2-7.7L411.9,135.3z"/>
	<path class="st2" d="M415.1,117.3c2,0,3.3,0.4,4,1.1c0.9,1.2,1.5,2.6,1.7,4.1c2-0.4,4-0.5,5.9-0.5c4.4,0,6.6,1.6,6.6,4.7
		c0,1.9-0.7,6.4-2,13.5c-2.1,10.4-3.1,17.6-3.1,21.6c-0.1,1.2,0.3,2.3,1,3.2c0.6,0.8,1.6,1.2,2.6,1.2c1.7,0,3.8-1.1,6.2-3.3
		c3.5-3.4,6.8-7,9.9-10.7c0.9-1.2,2.2-1.8,3.7-1.9c1.2,0,2.2,0.6,2.8,1.6c0.7,1.4,1.1,2.9,1,4.5c0,3.6-0.8,6.4-2.6,8.4
		c-3.4,4.3-7.4,8.2-11.8,11.6c-4.1,3.2-8.1,4.7-12,4.7c-3,0-5.9-1.1-8.2-3c-2.6-2.2-4.5-5.1-5.6-8.3c-4.7,7.6-10.6,11.4-17.7,11.4
		c-5.2,0.2-10.1-2.1-13.4-6.1c-3.3-4-5-9.4-5-16c0-7.1,1.7-14.2,5-20.5c3.1-6.2,7.7-11.5,13.3-15.5
		C402.6,119.5,408.8,117.4,415.1,117.3 M417,129.9c-3.9,0.1-7.6,1.6-10.5,4.3c-3.3,3-5.9,6.7-7.6,10.8c-1.9,4.5-2.9,9.4-2.8,14.3
		c0,2.8,0.6,4.9,1.7,6.2c1.2,1.4,2.9,2.1,4.7,2c2,0,3.9-1.2,5.7-3.5c2-2.8,3.3-6,3.9-9.3L417,129.9 M415.2,109.3
		c-8,0-15.8,2.6-22.3,7.4c-6.7,4.8-12.1,11.1-15.8,18.4c-3.9,7.5-5.9,15.7-5.9,24.1c0,8.5,2.3,15.5,6.8,21c4.8,5.9,12,9.2,19.6,9
		c6.2,0,12.1-2.2,16.8-6.1c0.5,0.4,0.9,0.9,1.4,1.3c3.7,3.1,8.4,4.8,13.2,4.8c5.7,0,11.3-2.1,16.9-6.4c4.8-3.7,9.2-8,13-12.8
		c2.9-3.5,4.4-8,4.4-13.5c0.1-3.1-0.7-6.1-2.2-8.7c-2-3.3-5.6-5.4-9.5-5.4c-3.8,0-7.3,1.8-9.7,4.7l0,0l0,0c-1.7,2-3.2,3.8-4.6,5.3
		c0.4-2.8,1.1-6.3,1.9-10.6v-0.1c1.9-10.1,2.2-13.3,2.2-15c0-5.9-3.8-12.7-14.6-12.7h-0.9c-0.2-0.3-0.5-0.6-0.7-0.9
		C422.9,110.5,419.6,109.2,415.2,109.3L415.2,109.3z"/>
	<path class="st1" d="M496.8,185.3c-8,0-14.5-2.4-19.5-7c-3.8-3.5-6.3-8.1-7.1-13.2c-0.7,2.1-1.3,4.2-1.8,6.3
		c-1.2,5-2.5,8.2-4.3,10.3c-2.1,2.4-5.2,3.6-9.2,3.6c-5.3,0-8.1-2.7-9.5-4.9c-1.7-2.6-2.7-6.2-3.2-11.1c-0.5-4.4-0.7-10.6-0.7-19.1
		c0.1-14.8,1.5-29.6,4.3-44.1c2.9-15.4,7.3-28.5,13-39.1c6.3-11.6,14.2-17.4,23.5-17.4c5.3,0,10.3,2.6,13.3,7
		c3.1,4.2,4.6,9.7,4.6,16.2c0,9.7-2.8,19.9-8.5,30.2c-2.4,4.4-5.1,8.6-8.1,12.7c2.7-1.3,5.7-2,8.8-2.1c5.3-0.2,10.3,2,13.9,5.9
		c3.4,3.8,5.3,8.8,5.2,14c0,5.5-1.5,11-4.4,15.7c-2.4,4-6.3,7.6-11.5,10.8c0.3,0.4,0.6,0.7,0.9,1c1.2,0.9,2.7,1.4,4.2,1.3
		c2.1-0.1,4-0.9,5.6-2.3c3.5-3.2,6.8-6.6,9.8-10.3c1.6-2.1,4.1-3.3,6.7-3.3c2.5,0,4.9,1.3,6.2,3.5c1.1,2,1.7,4.3,1.6,6.6
		c0,4.5-1.2,8.2-3.5,11c-3.8,4.7-8.1,9-13,12.6C508.9,183.6,502.9,185.4,496.8,185.3z M486.1,138.6c-0.7,0.2-2.2,1.1-4.4,3.7
		c-1.5,1.9-2.9,3.8-4.1,5.9c4.2-1.8,6.1-3.4,7-4.4c1.1-1.2,1.6-2.8,1.6-4.5C486.2,139.1,486.2,138.9,486.1,138.6z M478.8,72.9
		c-0.3,0.6-0.8,1.5-1.2,2.6c-2.3,5.9-4.2,11.9-5.5,18.1c-0.7,2.8-1.2,5.6-1.8,8.6c1.3-2.3,2.5-4.6,3.6-6.9
		c3.4-7.2,5.1-13.7,5.1-19.4C479,74.8,479,73.9,478.8,72.9z"/>
	<path class="st2" d="M482.2,53.5c4-0.1,7.8,2,10.1,5.3c2.6,3.6,3.8,8.2,3.8,13.9c0,9.1-2.7,18.5-8,28.3c-5.3,9.8-14,21.2-26,34.3
		c-0.3,4.7-0.4,9.5-0.4,14.5c4.3-11.3,9.3-19.4,14.9-24.5s10.8-7.6,15.7-7.6c4.1-0.2,8.1,1.5,10.9,4.6c2.8,3.1,4.3,7.2,4.1,11.4
		c0,4.8-1.3,9.5-3.8,13.6c-2.5,4.2-6.9,7.9-13,11.1c0.3,2.3,1.5,4.4,3.3,5.9c1.9,1.5,4.3,2.3,6.7,2.2c3-0.1,5.9-1.2,8.1-3.2
		c3.8-3.3,7.2-6.9,10.4-10.8c0.9-1.2,2.2-1.8,3.7-1.9c1.2,0,2.2,0.6,2.8,1.6c0.7,1.4,1.1,2.9,1,4.5c0,3.6-0.9,6.4-2.6,8.4
		c-3.6,4.5-7.7,8.5-12.3,11.9c-4.3,3-9.5,4.6-14.7,4.5c-6.9,0-12.5-2-16.8-6s-6.4-9.2-6.3-15.8c0-3.5,1.8-6,5.4-7.6
		c4-1.7,6.8-3.5,8.5-5.5c1.7-2,2.6-4.5,2.6-7.1c0.1-1.3-0.3-2.6-1-3.6c-0.6-0.8-1.5-1.2-2.5-1.2c-2.4,0-5.1,1.8-8,5.3
		c-3.3,4.1-6.1,8.7-8.2,13.6c-2.5,5.5-4.5,11.2-5.9,17.1c-1,4.2-2.1,7.1-3.5,8.6s-3.4,2.2-6.2,2.2c-2.4,0.2-4.8-1-6.2-3
		c-1.3-2-2.2-5.1-2.6-9.4c-0.4-4.3-0.7-10.5-0.7-18.6c0.1-14.6,1.5-29.1,4.3-43.4c2.8-15,7-27.7,12.6-37.9
		C467.9,58.7,474.5,53.6,482.2,53.5 M463.8,118.4c5.5-6.5,10.2-13.7,13.8-21.5c3.6-7.8,5.4-14.8,5.4-21.1c0.1-2.2-0.3-4.5-1-6.6
		c-0.6-1.5-1.5-2.3-2.7-2.3c-1.6,0-3.4,2.3-5.4,7c-2.4,6.1-4.4,12.4-5.7,18.8c-2,8.5-3.5,17.1-4.5,25.8 M482.1,45.6
		c-10.9,0-20,6.6-27,19.5c-5.9,10.9-10.4,24.5-13.4,40.2c-2.8,14.8-4.3,29.8-4.4,44.9c-0.1,6.5,0.2,13,0.7,19.5
		c0.6,5.5,1.8,9.8,3.9,12.9c2.8,4.3,7.7,6.9,12.9,6.7c6.5,0,10.2-2.7,12.2-5c1.8-2.2,3.1-4.6,3.9-7.3c1.1,1.5,2.3,2.9,3.6,4.1
		c5.7,5.4,13.2,8.1,22.2,8.1c6.9,0.1,13.7-2,19.4-6c5.2-3.8,9.9-8.3,13.9-13.3c2.9-3.5,4.4-8,4.4-13.5c0.1-3.1-0.7-6.1-2.2-8.7
		c-2-3.4-5.6-5.4-9.6-5.4c-3.8,0-7.3,1.8-9.7,4.7l0,0l0,0l-0.6,0.7c2.1-4.5,3.1-9.4,3.1-14.4c0.1-6.1-2.1-12.1-6.2-16.7
		c-4.3-4.7-10.4-7.4-16.8-7.3c1-1.6,1.9-3.2,2.8-4.7c5.9-10.9,9-21.7,9-32.1c0-7.4-1.8-13.6-5.4-18.5c-3.7-5.5-9.9-8.7-16.5-8.7
		L482.1,45.6z"/>
	<path class="st1" d="M543.3,185.3c-10.5,0-18.9-3-24.8-8.9s-9-13.9-9-23.9c0-6.6,1.4-13.2,4.3-19.1c2.7-5.8,7-10.7,12.2-14.4
		c5.3-3.6,11.6-5.5,18-5.4c6.3,0,11.5,2,15.4,5.8s5.9,9.1,5.9,15.5c0.1,7.1-2.8,13.9-7.9,18.9c-3.8,3.9-9.5,7-17,9.5
		c1.4,0.4,2.9,0.5,4.4,0.5c3.3,0,7.4-1.3,11.9-3.8c4.7-2.6,8.9-6,12.2-10.2c1.6-2.1,4.1-3.3,6.7-3.4c2.5,0,4.9,1.3,6.2,3.5
		c1.1,2,1.7,4.3,1.6,6.6c0,4.6-1.2,8.3-3.5,11c-4.3,4.9-9.4,9-15.2,12.1C558.2,183.3,550.8,185.3,543.3,185.3z M541.7,134.9
		c-0.7,0-2.7,0-5,3.9c-1.2,2.1-2,4.4-2.4,6.7c2-0.8,3.9-1.9,5.6-3.2c2.8-2.3,3.1-4.4,3.1-5.7c0-1-0.3-1.3-0.4-1.4
		S542.3,134.9,541.7,134.9L541.7,134.9z"/>
	<path class="st2" d="M544,117.6c5.2,0,9.4,1.6,12.6,4.7c3.2,3.1,4.7,7.3,4.7,12.6c0.1,6-2.3,11.8-6.7,16c-4.5,4.5-12,8-22.6,10.6
		c2.3,4.1,6.5,6.2,12.8,6.2c4.1,0,8.7-1.4,13.8-4.3c5.2-2.8,9.7-6.6,13.5-11.1c0.9-1.2,2.2-1.8,3.7-1.9c1.2,0,2.2,0.6,2.8,1.6
		c0.7,1.4,1.1,2.9,1,4.5c0,3.6-0.9,6.4-2.6,8.4c-4,4.6-8.8,8.4-14.1,11.2c-5.9,3.4-12.7,5.2-19.5,5.1c-9.5,0-16.8-2.6-22-7.7
		s-7.8-12.2-7.8-21.1c-0.1-6,1.3-12,3.9-17.4c2.4-5.1,6.2-9.6,10.9-12.8C532.9,119.2,538.4,117.5,544,117.6 M529.8,151
		c5.3-1.3,9.5-3.2,12.6-5.7c3-2.5,4.6-5.5,4.6-8.8c0.1-1.5-0.4-3-1.4-4.1c-1-1.1-2.4-1.6-3.8-1.5c-3.3,0-6.2,1.9-8.5,5.8
		c-2.4,4.3-3.6,9.1-3.4,14.1L529.8,151 M544,109.6c-7.2-0.1-14.3,2.1-20.2,6.1c-5.8,4-10.5,9.5-13.6,15.9
		c-3.2,6.5-4.8,13.6-4.7,20.9c0,11.1,3.4,20.1,10.2,26.8s16,10,27.6,10c8.2,0,16.3-2.1,23.5-6.2c6.2-3.3,11.7-7.7,16.3-13
		c3-3.5,4.5-8,4.5-13.5c0.1-3.1-0.7-6.1-2.2-8.7c-2-3.4-5.6-5.4-9.6-5.4c-3.1,0-6.1,1.2-8.4,3.3c1.3-3.5,1.9-7.2,1.9-10.9
		c0-7.5-2.4-13.7-7.1-18.3S551.4,109.6,544,109.6L544,109.6z"/>
	<path class="st1" d="M593.7,188.2c-5.7,0-10.2-1.4-13.4-4.2c-3.4-2.9-5.1-6.4-5.1-10.3c0-0.5,0-0.9,0.1-1.4
		c-0.6,0.7-1.3,1.3-1.9,1.9c-2,2.2-4.9,3.5-7.9,3.6c-2.5,0-4.9-1-6.5-2.9c-1.5-1.8-2.4-4.1-2.3-6.5c0-2.8,1-5.4,2.8-7.5l1.7-2.1
		c3.9-4.7,7.5-9.6,10.9-14.7c1.5-2.5,3.2-5.9,5.2-10.1s4.1-8.8,6-13.4c1.7-3.8,5.5-8.4,14.4-8.4c2.4-0.1,4.7,0.2,6.9,1
		c2.3,1,3.9,3.3,3.8,5.8c-0.1,1.3-0.3,2.5-0.7,3.8c-0.5,1.4-1,2.8-1.8,4.2c-1.6,3.3-2,5.3-2,6.4c0.1,0.9,0.4,1.7,0.9,2.4
		c1.2,2,2.5,3.8,4,5.6l0.1,0.1c2.5,3.2,4.8,6.6,6.9,10.1c1.3,2.2,2.1,4.7,2.5,7.2c3.1-2.7,5.9-5.7,8.4-8.9l0.1-0.1
		c1.6-2,4.1-3.2,6.7-3.3c2.5,0,4.9,1.3,6.2,3.5c1.2,2,1.7,4.3,1.6,6.6c0.1,3.9-1.1,7.7-3.4,10.9c-5,6.1-9.6,10.2-14.3,12.5
		c-4.9,2.3-10.1,3.5-15.5,3.7C603.9,186.6,598.8,188.3,593.7,188.2z M588.5,155.2c-1.4,2.3-2.8,4.5-4.2,6.4c1.6-0.5,3.3-0.7,5-0.7
		c0.8,0,1.7,0,2.6,0.1l-0.1-0.3c-0.9-1.9-1.9-3.6-3.2-5.3L588.5,155.2z"/>
	<path class="st2" d="M597.6,116.1c1.8-0.1,3.6,0.1,5.3,0.7c0.9,0.3,1.5,1.2,1.5,2.2c-0.1,0.9-0.2,1.7-0.5,2.6
		c-0.4,1.2-0.9,2.4-1.5,3.5c-1.4,2.5-2.3,5.3-2.4,8.2c0.1,1.6,0.6,3.1,1.4,4.5c1.3,2.1,2.8,4.2,4.4,6.1c2.4,3.1,4.6,6.3,6.6,9.7
		c1.5,2.7,2.3,5.7,2.2,8.7c0,1.3-0.1,2.5-0.3,3.8c4.4-1.7,9.6-6.3,15.5-13.6c0.9-1.2,2.2-1.8,3.7-1.9c1.2,0,2.2,0.6,2.8,1.6
		c0.7,1.4,1.1,2.9,1,4.5c0.1,3-0.8,6-2.6,8.4c-4.5,5.6-8.8,9.4-12.9,11.4c-4.8,2.2-10,3.3-15.2,3.3c-3.6,3.1-8.1,4.7-12.8,4.6
		c-4.7,0-8.2-1.1-10.8-3.2c-2.5-2.2-3.7-4.6-3.7-7.3c0-2.3,0.9-4.5,2.6-6.1c1.7-1.7,4.2-2.6,7.6-2.6c1.4,0,2.8,0.1,4.1,0.3
		c1.6,0.2,2.8,0.4,3.6,0.5c-0.1-2.3-0.6-4.5-1.5-6.6c-1-2.1-2.2-4.1-3.6-6c-1.4-1.9-2.8-3.6-4-5.1c-2.4,4.7-5.2,9.1-8.3,13.2
		c-2.8,3.5-5.8,6.9-9,10c-1.3,1.5-3.2,2.4-5.1,2.4c-1.3,0-2.6-0.5-3.5-1.5c-0.9-1.1-1.4-2.4-1.3-3.8c0-1.8,0.7-3.6,1.9-5l1.8-2.2
		c4-4.8,7.8-9.9,11.2-15.1c1.5-2.6,3.3-6.1,5.4-10.5c2.1-4.4,4.1-8.9,6.2-13.6C588.7,118.1,592.3,116.1,597.6,116.1 M597.7,108.1
		c-11.6,0-16.3,6.8-18,10.8l0,0l0,0c-1.9,4.6-3.9,9-5.9,13.3c-1.9,4.1-3.6,7.3-5,9.7c-3.3,5-6.9,9.7-10.7,14.3l-1.7,2.1
		c-2.4,2.8-3.7,6.4-3.7,10.1c0,3.3,1.1,6.6,3.3,9.1c2.4,2.8,5.9,4.3,9.5,4.3c2.5,0,4.9-0.7,7-1.9c1.2,2.7,3,5.2,5.2,7.1
		c4,3.5,9.3,5.2,16,5.2c5.6,0.1,11.1-1.6,15.7-4.7c5.5-0.3,10.9-1.7,15.9-4c5.2-2.6,10.3-7,15.6-13.6l0,0l0,0
		c2.9-3.8,4.4-8.5,4.3-13.3c0.1-3.1-0.7-6.1-2.2-8.7c-2-3.3-5.6-5.4-9.6-5.4c-3.8,0-7.3,1.8-9.7,4.7l-0.1,0.1l-0.1,0.1
		c-1.2,1.5-2.4,2.9-3.4,4c-0.3-0.6-0.6-1.2-0.9-1.7c-2.1-3.7-4.5-7.3-7.1-10.6l-0.1-0.1l-0.1-0.1c-1.4-1.6-2.6-3.3-3.7-5.1
		c-0.1-0.2-0.2-0.4-0.3-0.6c0.3-1.5,0.8-3,1.5-4.4c0.8-1.5,1.5-3.2,2-4.8c0.5-1.6,0.8-3.2,0.9-4.9c0-4.1-2.4-7.8-6.2-9.4
		C604.1,108.5,601.4,108.1,597.7,108.1L597.7,108.1z"/>
	<path class="st1" d="M674.8,185.3c-5.8,0-10.3-1.8-13.4-5.3c-3-3.4-4.5-8.2-4.5-14.2c0-2.8,0.6-7.5,2-14.3c0.3-1.4,0.5-2.6,0.7-3.7
		c-1.6,2.8-3.1,5.6-4.3,8.6c-2.1,4.9-3.8,9.9-5.1,15c-2.1,8.9-8,13.9-16.6,13.9c-5.8,0-8.1-3.3-9-5.3c-1.1-2.5-1.6-6.3-1.6-12.1
		c0-3,0-5.2,0.1-7l0.1-10.7c0.1-14.8,1.5-29.6,4.3-44.1c2.9-15.4,7.3-28.5,13-39.1c6.3-11.6,14.2-17.4,23.5-17.4
		c5.3,0,10.3,2.6,13.3,7c3.1,4.2,4.6,9.7,4.6,16.2c0,9.7-2.8,19.9-8.5,30.2c-2.4,4.4-5.1,8.7-8.1,12.7c2.7-1.3,5.7-2,8.8-2.1
		c8,0,12.8,4.8,12.8,12.8c0,3.8-1,10.3-3.1,19.9c-2,9.4-2.5,13.2-2.5,14.7c0,0.5,0,0.9,0.1,1.4c0.4-0.1,1.6-0.5,3.6-2.3
		c3.4-3.2,6.6-6.7,9.5-10.3c1.6-2.1,4.1-3.3,6.7-3.3c2.5,0,4.9,1.3,6.2,3.5c1.1,2,1.7,4.3,1.6,6.6c0,4.6-1.2,8.3-3.5,11
		c-4,4.7-8.6,8.9-13.6,12.5C687,183.5,680.9,185.4,674.8,185.3z M660.7,72.9c-0.3,0.6-0.8,1.5-1.2,2.6c-2.3,5.9-4.2,11.9-5.5,18.1
		c-0.7,2.8-1.3,5.6-1.8,8.6c1.3-2.3,2.5-4.6,3.6-6.9c3.4-7.2,5.1-13.7,5.1-19.4C660.8,74.8,660.8,73.9,660.7,72.9L660.7,72.9z"/>
	<path class="st2" d="M664,53.5c4-0.1,7.8,2,10.1,5.3c2.6,3.6,3.8,8.2,3.8,13.9c0,9.1-2.7,18.5-8,28.3c-5.3,9.8-14,21.2-26,34.3
		c-0.3,4.7-0.4,9.5-0.4,14.5c2.4-6.7,5.8-13,9.9-18.7c3.6-4.8,7.3-8.3,10.8-10.3c2.9-1.9,6.3-3,9.8-3.1c5.8,0,8.8,2.9,8.8,8.8
		c0,3.5-1,9.9-3,19.1c-1.7,7.8-2.6,13-2.6,15.5c0,3.6,1.3,5.4,3.9,5.4c1.8,0,3.9-1.1,6.4-3.3c3.6-3.4,6.9-6.9,9.9-10.8
		c0.9-1.2,2.2-1.8,3.7-1.9c1.2,0,2.2,0.6,2.8,1.6c0.7,1.4,1.1,2.9,1,4.5c0,3.6-0.9,6.4-2.6,8.4c-3.8,4.4-8,8.4-12.8,11.8
		c-4.4,3.1-9.6,4.7-14.9,4.6c-4.6,0-8.1-1.3-10.4-4c-2.4-2.7-3.5-6.5-3.5-11.6c0-2.5,0.6-7,1.9-13.5c0.9-3.9,1.5-7.8,1.8-11.8
		c0-1.4-0.5-2.2-1.5-2.2c-1.2,0-2.8,1.5-5,4.5c-2.6,3.8-4.7,7.8-6.5,12c-2.2,5.1-4,10.3-5.3,15.7c-1.7,7.2-5.9,10.8-12.7,10.8
		c-2.7,0-4.5-1-5.3-2.9c-0.9-1.9-1.2-5.4-1.1-10.5c0-2.9,0-5.2,0.1-6.9l0.1-10.8c0.1-14.6,1.5-29.1,4.3-43.4
		c2.8-15,7-27.7,12.6-37.9C649.6,58.6,656.3,53.5,664,53.5 M645.5,118.4c5.6-6.5,10.2-13.7,13.8-21.5c3.7-7.7,5.5-14.8,5.5-21.1
		c0.1-2.2-0.2-4.5-1-6.6c-0.6-1.5-1.5-2.3-2.7-2.3c-1.6,0-3.4,2.3-5.4,7c-2.4,6.1-4.4,12.4-5.7,18.7
		C648,101.2,646.5,109.8,645.5,118.4 M664,45.5c-10.9,0-20,6.6-27,19.5c-5.9,10.9-10.4,24.5-13.4,40.2c-2.9,14.8-4.3,29.8-4.4,44.8
		l-0.1,10.6c-0.1,1.8-0.1,4.2-0.1,7.2c0,6.4,0.6,10.6,2,13.7c2.2,4.9,6.8,7.7,12.7,7.7c10.1,0,17.4-5.7,20.2-15.8
		c0.8,3.4,2.4,6.5,4.6,9.1c2.7,3,7.7,6.7,16.4,6.7c7,0.1,13.8-2,19.5-6c5.3-3.8,10-8.2,14.2-13.1c3-3.5,4.5-8.1,4.5-13.6
		c0.1-3.1-0.7-6.1-2.2-8.7c-2-3.3-5.6-5.4-9.5-5.4c-3.8,0-7.3,1.8-9.7,4.7l0,0l0,0c-1.8,2.2-3.5,4.1-5,5.7c0.3-1.6,0.7-3.5,1.2-5.8
		c2.2-10,3.2-16.6,3.2-20.8c0-10.2-6.5-16.8-16.7-16.8c1-1.6,1.9-3.2,2.7-4.7c5.9-10.9,9-21.7,9-32.1c0-7.4-1.8-13.6-5.4-18.5
		C676.9,48.7,670.6,45.4,664,45.5z"/>
	<path class="st1" d="M717.7,185.3c-5.7,0.1-11.3-1.5-16.1-4.6c-4.4-3-7.9-7.1-10.1-12c-2.2-4.9-3.4-10.3-3.3-15.7
		c-0.1-6.9,1.4-13.8,4.3-20.1c2.7-5.7,6.9-10.6,12.2-14.2c5.2-3.4,11.3-5.2,17.5-5.2c8,0,14.6,2.8,19.5,8.4
		c3.9,4.5,6.6,9.9,7.8,15.8c3.6-0.5,7.2-1.3,10.8-2.2c1-0.3,1.9-0.4,2.9-0.4c2.6,0,5,1.5,6.2,3.9c1,2,1.5,4.2,1.4,6.4
		c0,8.1-4.1,10.7-6.7,11.5c-5.2,1.8-10.5,2.9-16,3.3c-1.8,6.7-5.5,12.7-10.6,17.3C732.1,182.5,725,185.3,717.7,185.3z M717.9,137.1
		c-0.8,0.6-1.5,1.4-2,2.2c-1.9,2.7-2.9,6.9-2.9,12.4c0,4.1,0.7,7.1,2.1,9c1.5,2.1,2.8,2.3,3.6,2.3c1.8,0,3.4-0.8,4.5-2.2
		c1.4-1.7,2.4-3.7,2.8-5.8c-2.3-2-4.2-4.5-5.6-7.3C718.9,144.3,718,140.7,717.9,137.1L717.9,137.1z"/>
	<path class="st2" d="M722.1,117.5c6.8,0,12.4,2.4,16.6,7.1c4.3,4.9,6.8,11,7.4,17.5c5.1-0.4,10.2-1.3,15.1-2.7
		c0.6-0.2,1.3-0.3,1.9-0.3c1.2,0,2.2,0.7,2.7,1.8c0.7,1.4,1,2.9,1,4.5c0,4.3-1.3,6.9-3.9,7.7c-5.8,2-11.8,3-17.9,3.2
		c-1.7,7.6-5.1,13.6-10.1,18.2c-4.6,4.4-10.8,6.8-17.2,6.8c-4.9,0.1-9.7-1.2-13.8-3.9c-3.8-2.6-6.8-6.2-8.7-10.4
		c-2-4.4-3-9.2-3-14.1c-0.1-6.3,1.2-12.6,3.9-18.3c2.4-5.1,6.2-9.5,10.8-12.6C711.4,119,716.7,117.4,722.1,117.5 M722.3,131.8h-0.7
		c-3.6,0-6.6,1.7-9,5.2c-2.4,3.5-3.6,8.4-3.6,14.6c0,5,1,8.7,2.9,11.4c1.9,2.6,4.2,3.9,6.8,3.9c2.9,0,5.6-1.3,7.5-3.5
		c2.1-2.3,3.5-5.7,4.3-10.1c-2.8-1.9-5-4.4-6.4-7.4c-1.5-3-2.2-6.4-2.2-9.7C721.8,134.7,722,133.2,722.3,131.8 M722.1,109.5
		c-7,0-13.8,2-19.7,5.8c-5.9,3.9-10.6,9.4-13.6,15.8c-3.2,6.8-4.8,14.3-4.7,21.8c0,6,1.2,11.9,3.7,17.4c2.5,5.5,6.5,10.3,11.5,13.7
		c5.4,3.6,11.8,5.5,18.4,5.3c8.4,0,16.4-3.2,22.5-8.9c5-4.5,8.7-10.2,10.9-16.6c4.8-0.5,9.6-1.6,14.2-3.2c8.5-2.7,9.4-11.6,9.4-15.3
		c0.1-2.9-0.6-5.7-1.9-8.2c-1.9-3.7-5.6-6-9.8-6c-1.3,0-2.6,0.2-3.8,0.5h-0.1c-2.4,0.6-4.7,1.1-6.8,1.5c-1.5-5.1-4.2-9.9-7.7-13.9
		C739,112.8,731.2,109.4,722.1,109.5L722.1,109.5z M718.9,158.9c-0.2-0.2-0.4-0.4-0.6-0.7c-0.4-0.5-1.3-2.3-1.3-6.6c0-0.7,0-1.3,0-2
		c1.2,2.3,2.7,4.5,4.4,6.4c-0.3,0.7-0.7,1.4-1.2,2C719.6,158.8,719.2,158.9,718.9,158.9L718.9,158.9z"/>
	<path class="st1" d="M746.9,246.4c-6.2,0-11.1-2.4-14.2-7c-2.8-4.2-4.2-9.8-4.2-16.8c0-9.2,2.1-20.1,6.3-32.2
		c4-11.7,10.3-24.7,18.6-38.7c0-12.5-0.1-21.3-0.3-26.2c-0.2-3.8,1.6-7.5,4.8-9.6c3.1-2.1,6.7-3.1,10.4-3c2.4-0.1,4.9,0.6,6.8,2.2
		c1,0.9,1.8,2.2,2.2,3.5c1-0.8,2.1-1.6,3.3-2.2c3.3-1.9,7.1-2.9,10.9-2.9c6.1-0.1,11.9,2.7,15.5,7.6c3.8,4.8,5.7,11,5.7,18.4
		c-0.1,15.4-7.4,29.8-19.7,38.9c-4.7,3.6-10.3,5.9-16.1,6.7c-1.3,16.2-4,30-8,41.2C764.1,239.6,756.7,246.4,746.9,246.4z
		 M751.4,202.1c-1.7,5.9-2.7,12-2.8,18.1v0.2c0.5-1.9,1-4.4,1.5-7.8S751,205.8,751.4,202.1L751.4,202.1z M778,142.5
		c-0.1,3.9-0.1,9.3-0.1,16.2c0,1.2,0,2.2,0,3.3c0.7-0.5,1.4-1.1,2-1.8c2.5-2.7,4.4-5.8,5.7-9.2c1.4-3.7,2.2-7.7,2.2-11.7
		c0-2.3-0.5-3.3-0.8-3.7c-0.3-0.4-0.7-0.6-1.2-0.5C785.7,135,783.2,135.1,778,142.5z"/>
	<path class="st2" d="M768.3,116.8c1.5-0.1,2.9,0.3,4.1,1.1c0.9,0.8,1.3,2.3,1.4,4.5s0,3.9,0.1,5c2.3-3.1,5.2-5.7,8.5-7.8
		c2.7-1.6,5.8-2.4,8.9-2.4c4.9-0.1,9.5,2.2,12.4,6.1c3.2,4.1,4.8,9.4,4.8,16c-0.1,14.1-6.7,27.3-18,35.7c-5.1,3.8-11.2,6-17.5,6.2
		c-1.2,17.4-3.8,31.9-8,43.6c-4.2,11.7-10.2,17.5-18.2,17.5c-4.9,0-8.5-1.8-10.8-5.3c-2.3-3.5-3.5-8.4-3.5-14.6
		c0-8.8,2-19.1,6.1-30.9s10.3-24.7,18.8-38.9c0-13.2-0.1-22.3-0.3-27.4c-0.2-2.5,1-4.9,3.1-6.2C762.7,117.5,765.5,116.7,768.3,116.8
		 M773.8,168.3c3.5-0.8,6.6-2.7,9-5.3c2.9-3,5.1-6.6,6.6-10.5c1.6-4.2,2.4-8.7,2.4-13.2c0-2.7-0.5-4.8-1.6-6.1
		c-1-1.4-2.6-2.2-4.3-2.1c-3.2,0-7.2,3.4-11.8,10.3c-0.1,4-0.1,9.8-0.1,17.4C773.9,162.8,773.9,166,773.8,168.3 M757.2,173.7
		c-3.7,8.4-6.7,17-9.2,25.8c-2.2,8.2-3.4,15.1-3.4,20.7c-0.1,2.3,0.2,4.5,1,6.6c0.7,1.5,1.5,2.3,2.4,2.3c2.4,0,4.5-5.3,6.1-15.9
		C755.9,200.1,756.9,186.9,757.2,173.7 M768.4,108.8c-4.5-0.1-9,1.2-12.7,3.8c-4.3,2.9-6.7,7.8-6.5,13c0.2,4.7,0.3,13.1,0.3,25
		c-8.2,13.8-14.3,26.8-18.3,38.5c-4.3,12.5-6.5,23.8-6.5,33.5c0,7.8,1.6,14.2,4.8,19c2.7,4,7.9,8.8,17.5,8.8c8.1,0,19.1-4,25.8-22.8
		c3.8-10.8,6.5-24,7.9-39.2c5.3-1.2,10.4-3.6,14.8-6.8c13.4-9.9,21.3-25.5,21.3-42.2c0-8.4-2.2-15.4-6.5-20.9
		c-4.4-5.8-11.3-9.2-18.7-9.1c-4.5,0-8.9,1.2-12.8,3.4l0,0c-0.2-0.3-0.5-0.5-0.8-0.8C775.2,109.7,771.9,108.6,768.4,108.8
		L768.4,108.8z M782,143.8c0.6-0.8,1.2-1.5,1.7-2.1c-0.2,2.6-0.8,5.2-1.7,7.6C782,147.2,782,145.4,782,143.8z"/>
</g>
<g id="Subtitle">
	<path class="st3" d="M168,228.9c-1.2-0.7-2.1-1.8-2.7-3c-0.7-1.5-1-3.1-1-4.7c0-3,0.7-6,2-8.7c1.3-2.7,3.4-4.9,5.9-6.5
		c2.9-1.7,6.1-2.5,9.5-2.4c1,0,2,0.1,3,0.2c1,0.1,2,0.3,3,0.7c0.6,0.1,0.9,0.7,0.9,1.2c0,0.6-0.2,1.1-0.6,1.5
		c-0.3,0.4-0.9,0.7-1.4,0.7c-0.1,0-0.2,0-0.4,0c-1.1-0.2-2-0.4-2.8-0.5c-0.8-0.1-1.6-0.2-2.4-0.2c-4.7-0.2-9,2.6-10.8,6.9
		c-0.9,2.1-1.4,4.4-1.4,6.8c-0.1,1.4,0.3,2.9,1,4.1c0.6,0.9,1.6,1.5,2.7,1.4c1.3,0,2.5-0.6,3.3-1.5c1.2-1.5,2.1-3.2,2.6-5
		c1-3.1,1.8-6.2,2.3-9.4c0.1-0.5,0.3-0.9,0.7-1.2c0.5-0.2,1-0.3,1.5-0.3c1.5,0,2.2,0.5,2.2,1.4c0,0.2,0,0.4-0.1,0.6
		c-0.5,2-1,4.2-1.5,6.7c-0.4,1.8-0.6,3.7-0.7,5.5c-0.1,0.8,0.1,1.7,0.5,2.4c0.3,0.5,0.9,0.8,1.5,0.8c0.7,0,1.4-0.2,1.9-0.7
		c0.8-0.7,1.6-1.4,2.3-2.3c0.2-0.3,0.5-0.4,0.8-0.4c0.3,0,0.5,0.1,0.6,0.4c0.2,0.3,0.2,0.7,0.2,1c0,0.7-0.2,1.4-0.6,1.9
		c-0.9,1.1-1.9,2-3,2.8c-1.1,0.7-2.3,1-3.6,1c-1.3,0.1-2.5-0.4-3.5-1.3c-0.9-1-1.5-2.2-1.7-3.5c-1.5,3.2-3.8,4.8-6.8,4.8
		C170.5,230.1,169.1,229.6,168,228.9z"/>
	<path class="st3" d="M200.9,223.3c0.2,0.3,0.2,0.7,0.2,1c0,0.7-0.2,1.4-0.6,1.9c-0.8,1-1.8,1.9-2.9,2.7c-1,0.7-2.3,1.1-3.5,1.1
		c-1.7,0.1-3.3-0.9-4-2.5c-1-2-1.4-4.2-1.3-6.4c0.1-2.9,0.4-5.8,1-8.6c0.5-2.9,1.5-5.7,2.9-8.3c1.3-2.3,2.8-3.5,4.5-3.5
		c1,0,1.9,0.5,2.4,1.4c0.6,1.2,0.9,2.6,0.9,4c-0.1,3-0.8,5.9-2,8.6c-1.5,3.4-3.3,6.7-5.5,9.6c0.1,0.7,0.3,1.3,0.7,1.8
		c0.3,0.4,0.8,0.6,1.3,0.5c0.8,0,1.6-0.2,2.2-0.7c0.9-0.7,1.7-1.6,2.5-2.5c0.2-0.3,0.5-0.4,0.8-0.4
		C200.6,222.9,200.8,223,200.9,223.3z M194.9,206.3c-0.7,2.1-1.2,4.2-1.6,6.4c-0.4,2.4-0.7,4.9-0.7,7.3c1.4-2.3,2.6-4.7,3.5-7.3
		c0.8-2.1,1.2-4.4,1.3-6.7c0-1.6-0.3-2.4-0.9-2.4S195.5,204.6,194.9,206.3L194.9,206.3z"/>
	<path class="st3" d="M222.2,220.3c0.3,0,0.5,0.1,0.7,0.3c0.2,0.2,0.3,0.5,0.2,0.8c0,0.5-0.1,1.1-0.4,1.5c-0.3,0.4-0.7,0.7-1.1,0.8
		c-1,0.3-2,0.5-3,0.5c-0.9,0-1.7-0.1-2.6-0.4c-0.6,1-1.3,2-2,3c-0.6,0.9-1.3,1.7-2.1,2.4c-0.6,0.4-1.3,0.7-2,0.7
		c-0.8,0-1.5-0.4-1.9-1c-0.5-1-0.8-2.1-0.8-3.2l-0.1-2.3c-0.5,1.4-1.1,2.7-1.7,4c-0.4,0.7-0.9,1.4-1.5,1.9c-0.5,0.4-1.1,0.5-1.8,0.5
		c-0.8,0-1.5-0.3-2-1c-0.6-0.9-0.9-2-0.9-3.1c-0.2-2.9-0.4-5.4-0.4-7.6v-1.1c0-0.5,0.2-1.1,0.6-1.4c0.5-0.3,1-0.4,1.6-0.4
		c0.4,0,0.9,0.1,1.2,0.3c0.3,0.3,0.4,0.8,0.4,1.2c0,2.4,0.1,5.5,0.4,9.3c1.4-2.9,2.7-6,3.9-9.2c0.1-0.5,0.4-0.9,0.8-1.3
		c0.3-0.2,0.7-0.3,1.2-0.3c0.4,0,0.8,0.1,1.2,0.3c0.3,0.4,0.4,0.8,0.3,1.2c0,2.4,0.1,5.5,0.4,9.3c1.2-1.8,2.2-3.3,2.8-4.4
		c-0.3-0.7-0.5-1.4-0.5-2.1c0-0.7,0.2-1.4,0.5-2c0.3-0.6,0.7-1.2,1.3-1.6c0.5-0.4,1.2-0.6,1.8-0.6c0.6,0,1.1,0.2,1.5,0.6
		c0.4,0.5,0.6,1.2,0.6,1.8c0,1.1-0.3,2.2-0.8,3.2c1.1-0.1,2.1-0.2,3.1-0.5l0.8-0.2C222.1,220.4,222.2,220.3,222.2,220.3z"/>
	<path class="st3" d="M221.4,228.6c-0.8-1-1.2-2.3-1.1-3.7c0-1.6,0.4-3.2,1.1-4.7c0.7-1.4,1.8-2.6,3-3.6c1.2-0.9,2.6-1.3,4-1.3
		c0.3,0,0.7,0.1,0.9,0.3c0.2,0.3,0.3,0.6,0.4,0.9c0.4-0.1,0.9-0.1,1.4-0.1c1,0,1.5,0.4,1.5,1.1c-0.1,1-0.2,2.1-0.5,3.1
		c-0.4,1.6-0.6,3.3-0.7,5c0,0.3,0.1,0.5,0.2,0.8c0.2,0.2,0.4,0.3,0.6,0.3c0.6-0.1,1.1-0.3,1.4-0.8c0.8-0.8,1.6-1.6,2.3-2.5
		c0.2-0.3,0.5-0.4,0.8-0.4c0.3,0,0.5,0.1,0.6,0.4c0.2,0.3,0.2,0.7,0.2,1c0,0.7-0.2,1.4-0.6,1.9c-0.8,1-1.7,1.9-2.7,2.7
		c-0.8,0.7-1.7,1-2.8,1.1c-0.7,0-1.4-0.3-1.9-0.7c-0.6-0.5-1-1.2-1.3-1.9c-0.8,1.6-2.3,2.6-4.1,2.6
		C223.3,230,222.1,229.5,221.4,228.6z M226.9,226c0.5-0.6,0.8-1.4,0.9-2.1l1.1-5.7c-0.9,0-1.7,0.4-2.4,1c-0.8,0.7-1.4,1.5-1.8,2.5
		c-0.4,1-0.7,2.2-0.6,3.3c0,0.5,0.1,1,0.4,1.4c0.3,0.3,0.7,0.5,1.1,0.5C226.1,226.8,226.6,226.5,226.9,226z"/>
	<path class="st3" d="M247.2,215.5c0.2,0.1,0.3,0.4,0.3,0.6c0,0.5-0.3,2.3-0.8,5.3s-0.8,4.6-0.8,5.2c-0.5,4.3-1.6,8.6-3.2,12.6
		c-1.3,3.1-3.1,4.7-5.4,4.7c-1,0-1.9-0.3-2.6-1c-0.7-0.7-1-1.6-1-2.6c0-1,0.2-2.1,0.7-3c0.6-1.3,1.5-2.5,2.5-3.5
		c1.6-1.6,3.3-3.2,5.1-4.5l0.1-0.7c0.1-0.8,0.3-1.9,0.5-3.3c-0.3,1.3-0.9,2.4-1.7,3.4c-0.6,0.7-1.4,1.1-2.4,1.2
		c-0.9,0-1.8-0.5-2.3-1.3c-0.6-1-0.9-2.1-0.9-3.2c0-1.4,0.1-2.9,0.3-4.3c0.2-1.4,0.6-2.8,1-4.1c0.1-0.5,0.4-1,0.9-1.3
		c0.5-0.3,1.1-0.5,1.8-0.4c0.3,0,0.7,0,1,0.2c0.2,0.2,0.3,0.4,0.3,0.7c-0.1,0.6-0.2,1.1-0.3,1.7c-0.2,0.8-0.4,1.5-0.5,2.1
		c-0.2,0.8-0.3,1.7-0.4,2.4c-0.1,0.6-0.2,1.3-0.2,1.9c0,0.8,0.2,1.2,0.6,1.2s0.7-0.3,1.2-0.9c0.6-0.9,1.1-1.8,1.5-2.8
		c0.6-1.5,1.1-3.1,1.5-4.7c0.1-1.1,1.1-1.9,2.2-1.7c0,0,0,0,0.1,0C246.6,215.3,246.9,215.4,247.2,215.5z M239.4,239.1
		c0.9-1.9,1.5-3.9,1.9-6c-1.3,1.1-2.5,2.3-3.5,3.7c-0.6,0.8-1,1.9-1.1,2.9c0,0.3,0.1,0.6,0.2,0.9c0.1,0.2,0.4,0.4,0.7,0.3
		C238.2,240.9,238.8,240.3,239.4,239.1z"/>
	<path class="st3" d="M252.6,229.9c-0.5-0.4-0.8-1-0.9-1.7c0-0.5,0.2-1,0.6-1.4c0.5-0.4,1.1-0.6,1.7-0.6c0.3,0,0.7,0,1,0.1
		c0.4,0.1,0.6,0.1,0.8,0.1c0-0.5-0.1-1-0.4-1.5c-0.2-0.5-0.5-0.9-0.8-1.4c-0.3-0.4-0.6-0.8-0.9-1.2c-0.5,1.1-1.2,2.1-1.9,3
		c-0.6,0.8-1.3,1.6-2.1,2.3c-0.3,0.3-0.7,0.5-1.2,0.6c-0.3,0-0.6-0.1-0.8-0.3c-0.2-0.2-0.3-0.6-0.3-0.9c0-0.4,0.2-0.8,0.4-1.1
		l0.4-0.5c0.9-1.1,1.8-2.3,2.6-3.5c0.4-0.7,0.8-1.4,1.1-2.1c0.4-0.8,0.9-2,1.5-3.4c0.4-0.9,1.4-1.5,2.4-1.3c0.4,0,0.8,0,1.2,0.2
		c0.2,0.1,0.3,0.3,0.3,0.5c0,0.2-0.1,0.4-0.1,0.6c-0.1,0.3-0.2,0.5-0.3,0.8c-0.3,0.6-0.5,1.2-0.6,1.9c0,0.4,0.1,0.7,0.3,1
		c0.3,0.5,0.6,1,1,1.4c0.5,0.7,1.1,1.4,1.5,2.2c0.3,0.6,0.5,1.3,0.5,2c0,0.9-0.2,1.7-0.6,2.5c-0.4,0.8-1,1.4-1.7,1.9
		c-0.7,0.5-1.6,0.7-2.5,0.7C254.2,230.7,253.3,230.4,252.6,229.9z"/>
	<path class="st3" d="M283.3,222.4c0,1.6-1.3,2.5-3.8,2.5c-0.7,0-1.4-0.1-2.1-0.3c0.3,1.3,0.5,2.7,0.7,4.3c0.2,1.3,0.2,2.6,0.3,3.9
		c0.1,1.8-0.3,3.5-1.1,5.1c-0.5,1.1-1.6,1.8-2.9,1.8c-1.5,0-2.5-1.1-3.2-3.2c-0.7-3.1-1.1-6.3-0.9-9.5c0-4.1,0.4-8.1,1.3-12.1
		c0.7-3.5,1.8-7,3.5-10.1c1.5-2.7,3.1-4,4.9-4c0.9,0,1.8,0.5,2.3,1.3c0.6,1.1,0.9,2.3,0.8,3.5c0,4.9-2.9,10.1-8.7,15.9
		c-0.2,2-0.3,3.8-0.3,5.3c0,2.1,0.1,4.3,0.2,6.6s0.4,3.4,0.7,3.4c0.6,0,0.9-1.1,0.9-3.2c0-1.6-0.1-3.1-0.3-4.7
		c-0.2-1.5-0.5-3.1-0.9-4.8c0-0.4,0.1-0.7,0.3-1c0.2-0.4,0.4-0.8,0.7-1.1c0.2-0.3,0.5-0.4,0.8-0.5c0.4,0,0.9,0,1.5,0.1
		c0.2,0,0.4,0,0.6,0c0.9,0,1.8-0.1,2.8-0.2l0.5-0.1c0.2,0,0.4,0,0.5,0C283,221.1,283.3,221.6,283.3,222.4z M277.9,205.6
		c-0.7,1.6-1.2,3.3-1.6,5c-0.5,2.1-1,4.3-1.4,6.6c1.6-1.8,2.8-3.7,3.8-5.9c0.8-1.8,1.3-3.7,1.4-5.7c0-1.3-0.3-1.9-0.8-1.9
		C278.9,203.7,278.5,204.4,277.9,205.6z"/>
	<path class="st3" d="M281.6,228.7c-0.4-1.3-0.5-2.6-0.5-4c0-2.6,0.4-5.2,1.1-7.7c0.1-0.5,0.5-1,0.9-1.3c0.5-0.3,1.2-0.4,1.8-0.4
		c0.3,0,0.6,0,0.9,0.2c0.2,0.1,0.3,0.4,0.2,0.6c-0.1,0.8-0.2,1.5-0.5,2.2c-0.2,0.8-0.4,1.5-0.5,2.2c-0.1,0.8-0.2,1.5-0.3,2.3
		c0.6-1.5,1.3-3,2.3-4.3c0.7-1,1.5-1.8,2.5-2.4c0.7-0.4,1.5-0.7,2.2-0.7c1-0.1,1.9,0.6,2,1.5c0,0.2,0,0.3,0,0.5c0,0.7-0.1,1.3-0.3,2
		c-0.1,0.5-0.2,1-0.2,1.5c0,0.7,0.2,1.1,0.8,1.1c0.9-0.2,1.7-0.7,2.2-1.4c0.2-0.2,0.5-0.4,0.8-0.4c0.3,0,0.5,0.1,0.6,0.4
		c0.2,0.3,0.2,0.6,0.2,0.9c0,0.7-0.2,1.3-0.6,1.8c-0.6,0.6-1.3,1.1-2,1.5c-0.8,0.4-1.6,0.6-2.5,0.6c-0.9,0.1-1.8-0.2-2.5-0.8
		c-0.6-0.6-0.9-1.4-0.9-2.3c0-0.3,0-0.6,0.1-0.9c0-0.4,0.1-0.7,0.1-0.8c0-0.3-0.1-0.5-0.3-0.5s-0.7,0.3-1.2,1
		c-0.6,0.9-1.1,1.8-1.5,2.7c-0.5,1.2-0.9,2.4-1.2,3.6c-0.1,0.7-0.4,1.4-0.8,2c-0.4,0.4-0.9,0.6-1.4,0.5
		C282.5,230,281.8,229.5,281.6,228.7z"/>
	<path class="st3" d="M309.8,223.3c0.2,0.3,0.2,0.7,0.2,1c0,0.7-0.2,1.4-0.6,1.9c-0.9,1-2,1.9-3.2,2.6c-1.4,0.8-2.9,1.2-4.5,1.2
		c-1.9,0.1-3.7-0.5-5.1-1.8c-1.2-1.3-1.9-3-1.8-4.8c0-1.4,0.3-2.8,0.9-4c0.6-1.2,1.4-2.2,2.5-2.9c1.1-0.7,2.3-1.1,3.6-1.1
		c1.1-0.1,2.1,0.3,2.9,1.1c0.8,0.8,1.1,1.8,1.1,2.9c0,1.4-0.5,2.7-1.5,3.7c-1.5,1.3-3.3,2.1-5.2,2.4c0.6,1,1.8,1.6,3,1.4
		c1.1-0.1,2.2-0.4,3.2-1c1.2-0.6,2.2-1.5,3.1-2.6c0.2-0.3,0.5-0.4,0.8-0.4C309.5,222.8,309.7,223,309.8,223.3z M299.4,219.7
		c-0.6,1-0.8,2.1-0.8,3.2v0.1c1-0.2,2-0.7,2.9-1.3c0.6-0.5,1-1.2,1-2c0-0.4-0.1-0.7-0.3-1c-0.2-0.2-0.6-0.4-0.9-0.4
		C300.5,218.4,299.8,218.9,299.4,219.7z"/>
	<path class="st3" d="M311,229.9c-0.5-0.4-0.8-1-0.9-1.7c0-0.5,0.2-1,0.6-1.4c0.5-0.4,1.1-0.6,1.7-0.6c0.3,0,0.7,0,1,0.1
		c0.4,0.1,0.6,0.1,0.8,0.1c0-0.5-0.1-1-0.4-1.5c-0.2-0.5-0.5-1-0.8-1.4c-0.3-0.4-0.6-0.8-0.9-1.2c-0.5,1.1-1.2,2.1-1.9,3
		c-0.6,0.8-1.3,1.6-2.1,2.3c-0.3,0.3-0.7,0.5-1.2,0.6c-0.3,0-0.6-0.1-0.8-0.3c-0.2-0.2-0.3-0.6-0.3-0.9c0-0.4,0.2-0.8,0.4-1.1
		l0.4-0.5c0.9-1.1,1.8-2.3,2.6-3.5c0.4-0.6,0.8-1.4,1.2-2.4s0.9-2,1.4-3.1c0.4-0.9,1.4-1.5,2.5-1.4c0.4,0,0.8,0,1.2,0.2
		c0.2,0.1,0.3,0.3,0.3,0.5c0,0.2-0.1,0.4-0.1,0.6c-0.1,0.3-0.2,0.6-0.3,0.8c-0.3,0.6-0.5,1.2-0.6,1.9c0,0.4,0.1,0.7,0.3,1
		c0.3,0.5,0.6,1,1,1.4c0.6,0.7,1.1,1.4,1.5,2.2c0.3,0.6,0.5,1.3,0.5,2c0,0.2,0,0.5-0.1,0.9c1.4-0.7,2.6-1.8,3.6-3.1
		c0.2-0.3,0.5-0.4,0.8-0.4c0.3,0,0.5,0.1,0.6,0.4c0.2,0.3,0.3,0.7,0.2,1c0,0.7-0.2,1.4-0.6,1.9c-0.8,1.1-1.8,2-3,2.6
		c-1.1,0.5-2.3,0.8-3.5,0.8c-0.8,0.7-1.9,1.1-3,1.1C312.6,230.6,311.7,230.4,311,229.9z"/>
	<path class="st3" d="M333.6,215.9c0.4,0.4,0.6,1,0.5,1.5c-0.1,1-0.2,2-0.3,3c-0.2,1.3-0.4,2.5-0.5,3.6c-0.1,1.3-0.2,2.5-0.2,3.8
		c0.1,0.6-0.1,1.2-0.5,1.7c-0.4,0.4-1,0.6-1.6,0.6c-0.6,0-1.1-0.1-1.5-0.5c-0.3-0.5-0.5-1-0.5-1.6c0.1-1.4,0.2-2.7,0.4-4.1
		c0.2-1,0.3-2.1,0.4-3.2c0-0.3-0.1-0.5-0.3-0.5s-0.6,0.3-1.1,1c-0.6,0.9-1.1,1.8-1.5,2.7c-0.5,1.2-0.9,2.4-1.2,3.6
		c-0.1,0.7-0.4,1.4-0.8,2c-0.4,0.4-0.9,0.6-1.4,0.5c-0.6,0-1.1-0.2-1.4-0.7c-0.4-0.7-0.6-1.4-0.6-2.2c-0.1-1-0.1-2.4-0.1-4.3
		c0-3.4,0.4-6.7,1-10c0.5-3,1.5-6,2.9-8.7c1.3-2.3,2.8-3.5,4.6-3.5c0.9,0,1.8,0.5,2.3,1.2c0.6,0.9,0.9,2,0.9,3.2
		c-0.1,2.3-0.7,4.5-1.8,6.5c-1.7,2.8-3.7,5.5-6,7.9c-0.1,1.1-0.1,2.2-0.1,3.3c0.6-1.5,1.3-3,2.3-4.3c0.7-0.9,1.5-1.8,2.5-2.4
		c0.7-0.4,1.4-0.7,2.2-0.7C332.6,215.3,333.2,215.5,333.6,215.9z M327.8,205.3c-0.6,1.4-1,2.8-1.3,4.3c-0.4,1.9-0.8,3.9-1,5.9
		c1.3-1.5,2.3-3.2,3.2-4.9c0.8-1.5,1.2-3.1,1.2-4.8c0-0.5,0-1-0.2-1.5c-0.1-0.3-0.4-0.5-0.6-0.5S328.3,204.3,327.8,205.3z"/>
	<path class="st3" d="M345.5,221.7c-0.3-0.4-0.5-0.9-0.5-1.4c0-0.5,0.1-0.9,0.4-1.2c0.3-0.3,0.8-0.5,1.2-0.5l6.4-0.6
		c0.4-0.1,0.9,0.1,1.2,0.4c0.3,0.4,0.5,0.8,0.4,1.3c0.1,0.9-0.5,1.7-1.4,1.8c-0.1,0-0.1,0-0.2,0l-6.4,0.6
		C346.3,222.2,345.8,222.1,345.5,221.7z"/>
	<path class="st3" d="M366.6,228.6c-0.8-1-1.2-2.3-1.1-3.7c0-1.6,0.4-3.2,1.1-4.7c0.7-1.4,1.8-2.6,3-3.6c1.2-0.9,2.6-1.3,4-1.3
		c0.3,0,0.7,0.1,0.9,0.3c0.2,0.3,0.3,0.6,0.4,0.9c0.4-0.1,0.9-0.1,1.4-0.1c1,0,1.5,0.4,1.5,1.1c-0.1,1-0.2,2.1-0.5,3.1
		c-0.4,1.6-0.6,3.3-0.7,5c0,0.3,0.1,0.5,0.2,0.8c0.2,0.2,0.4,0.3,0.6,0.3c0.6-0.1,1.1-0.3,1.4-0.8c0.8-0.8,1.6-1.6,2.3-2.5
		c0.2-0.3,0.5-0.4,0.8-0.4c0.3,0,0.5,0.1,0.6,0.4c0.2,0.3,0.2,0.7,0.2,1c0,0.7-0.2,1.4-0.6,1.9c-0.8,1-1.7,1.9-2.7,2.7
		c-0.8,0.7-1.7,1-2.8,1.1c-0.7,0-1.4-0.3-1.9-0.7c-0.6-0.5-1-1.2-1.3-1.9c-0.8,1.6-2.3,2.6-4.1,2.6
		C368.4,230,367.3,229.5,366.6,228.6z M372,226c0.5-0.6,0.8-1.4,0.9-2.1l1.1-5.7c-0.9,0-1.7,0.4-2.4,1c-0.8,0.7-1.4,1.5-1.8,2.5
		c-0.4,1-0.7,2.2-0.7,3.3c0,0.5,0.1,1,0.4,1.4c0.3,0.3,0.7,0.5,1.1,0.5C371.2,226.8,371.7,226.5,372,226z"/>
	<path class="st3" d="M392.9,223.3c0.2,0.3,0.2,0.7,0.2,1c0,0.7-0.2,1.4-0.6,1.9c-0.8,1-1.8,1.9-2.9,2.7c-1,0.7-2.3,1.1-3.5,1.1
		c-1.7,0.1-3.3-0.9-4-2.5c-1-2-1.4-4.2-1.3-6.4c0.1-2.9,0.4-5.8,1-8.6c0.5-2.9,1.5-5.7,2.9-8.3c1.3-2.3,2.8-3.5,4.5-3.5
		c1,0,1.9,0.5,2.3,1.4c0.6,1.2,0.9,2.6,0.9,4c-0.1,3-0.8,5.9-2,8.6c-1.5,3.4-3.3,6.7-5.5,9.6c0.1,0.7,0.3,1.3,0.7,1.8
		c0.3,0.4,0.8,0.6,1.3,0.5c0.8,0,1.6-0.2,2.2-0.7c0.9-0.7,1.7-1.6,2.5-2.5c0.2-0.3,0.5-0.4,0.8-0.4
		C392.6,222.9,392.8,223,392.9,223.3z M386.9,206.3c-0.7,2.1-1.2,4.2-1.6,6.4c-0.4,2.4-0.7,4.9-0.7,7.3c1.4-2.3,2.6-4.7,3.5-7.3
		c0.8-2.1,1.2-4.4,1.3-6.7c0-1.6-0.3-2.4-0.9-2.4S387.5,204.6,386.9,206.3L386.9,206.3z"/>
	<path class="st3" d="M414.2,220.3c0.3,0,0.5,0.1,0.7,0.3c0.2,0.2,0.3,0.5,0.2,0.8c0,0.5-0.1,1.1-0.4,1.5c-0.3,0.4-0.7,0.7-1.1,0.8
		c-1,0.3-2,0.5-3,0.5c-0.9,0-1.7-0.1-2.6-0.4c-0.6,1-1.3,2-2,3c-0.6,0.9-1.3,1.7-2.1,2.4c-0.6,0.4-1.3,0.7-2,0.7
		c-0.8,0-1.5-0.4-1.9-1c-0.5-1-0.8-2.1-0.8-3.2l-0.1-2.3c-0.5,1.4-1.1,2.7-1.7,4c-0.4,0.7-0.9,1.4-1.5,1.9c-0.5,0.4-1.1,0.5-1.8,0.5
		c-0.8,0-1.5-0.3-2-1c-0.6-0.9-0.9-2-0.9-3.1c-0.2-2.9-0.4-5.4-0.4-7.6v-1.1c0-0.5,0.2-1.1,0.6-1.4c0.5-0.3,1-0.4,1.6-0.4
		c0.4,0,0.9,0.1,1.2,0.3c0.3,0.3,0.4,0.8,0.4,1.2c0,2.4,0.1,5.5,0.4,9.3c1.4-2.9,2.7-6,3.9-9.2c0.1-0.5,0.4-0.9,0.8-1.3
		c0.3-0.2,0.7-0.3,1.2-0.3c0.4,0,0.8,0.1,1.2,0.3c0.3,0.4,0.4,0.8,0.3,1.2c0,2.4,0.1,5.5,0.4,9.3c1.2-1.8,2.2-3.3,2.8-4.4
		c-0.3-0.7-0.5-1.4-0.5-2.1c0-0.7,0.2-1.4,0.5-2c0.3-0.6,0.7-1.2,1.3-1.6c0.5-0.4,1.2-0.6,1.8-0.6c0.6,0,1.1,0.2,1.5,0.6
		c0.4,0.5,0.6,1.2,0.6,1.8c0,1.1-0.3,2.2-0.7,3.2c1.1-0.1,2.1-0.2,3.1-0.5l0.8-0.2C414,220.4,414.1,220.3,414.2,220.3z"/>
	<path class="st3" d="M413.4,228.6c-0.8-1-1.2-2.3-1.1-3.7c0-1.6,0.4-3.2,1.1-4.7c0.7-1.4,1.8-2.6,3-3.6c1.2-0.9,2.6-1.3,4-1.3
		c0.3,0,0.7,0.1,0.9,0.3c0.2,0.3,0.3,0.6,0.4,0.9c0.4-0.1,0.9-0.1,1.4-0.1c1,0,1.5,0.4,1.5,1.1c-0.1,1-0.2,2.1-0.5,3.1
		c-0.4,1.6-0.6,3.3-0.7,5c0,0.3,0.1,0.5,0.2,0.8c0.2,0.2,0.4,0.3,0.6,0.3c0.5-0.1,1-0.3,1.4-0.8c0.8-0.8,1.6-1.6,2.3-2.5
		c0.2-0.3,0.5-0.4,0.8-0.4c0.3,0,0.5,0.1,0.6,0.4c0.2,0.3,0.2,0.7,0.2,1c0,0.7-0.2,1.4-0.6,1.9c-0.8,1-1.7,1.9-2.7,2.7
		c-0.8,0.7-1.7,1-2.8,1.1c-0.7,0-1.4-0.3-1.9-0.7c-0.6-0.5-1-1.2-1.3-1.9c-0.8,1.6-2.3,2.6-4.1,2.6
		C415.3,230,414.1,229.5,413.4,228.6z M418.9,226c0.5-0.6,0.8-1.4,0.9-2.1l1.1-5.7c-0.9,0-1.7,0.4-2.4,1c-0.8,0.7-1.4,1.5-1.8,2.5
		c-0.4,1-0.7,2.2-0.6,3.3c0,0.5,0.1,1,0.4,1.4c0.3,0.3,0.7,0.5,1.1,0.5C418.1,226.8,418.6,226.5,418.9,226L418.9,226z"/>
	<path class="st3" d="M439.2,215.5c0.2,0.1,0.3,0.4,0.3,0.6c0,0.5-0.3,2.3-0.8,5.3s-0.8,4.6-0.8,5.2c-0.5,4.3-1.6,8.6-3.2,12.6
		c-1.3,3.1-3.1,4.7-5.4,4.7c-1,0-1.9-0.3-2.6-1c-0.7-0.7-1-1.6-1-2.6c0-1,0.2-2.1,0.7-3c0.6-1.3,1.5-2.5,2.5-3.5
		c1.6-1.6,3.3-3.1,5.1-4.5l0.1-0.7c0.2-0.8,0.3-1.9,0.5-3.3c-0.3,1.3-0.9,2.4-1.7,3.4c-0.6,0.7-1.4,1.1-2.3,1.2
		c-0.9,0-1.8-0.5-2.3-1.3c-0.6-1-0.9-2.1-0.9-3.2c0-1.4,0.1-2.9,0.3-4.3c0.2-1.4,0.6-2.8,1-4.1c0.1-0.5,0.4-1,0.9-1.3
		c0.5-0.3,1.1-0.5,1.8-0.4c0.3,0,0.7,0,1,0.2c0.2,0.2,0.3,0.4,0.3,0.7c-0.1,0.6-0.2,1.1-0.3,1.7c-0.2,0.8-0.4,1.5-0.5,2.1
		c-0.2,0.8-0.3,1.7-0.4,2.4c-0.1,0.6-0.2,1.3-0.2,1.9c0,0.8,0.2,1.2,0.7,1.2s0.7-0.3,1.2-0.9c0.6-0.9,1.1-1.8,1.5-2.8
		c0.6-1.5,1.1-3.1,1.5-4.7c0.1-1.1,1.1-1.9,2.2-1.7c0,0,0,0,0.1,0C438.5,215.3,438.9,215.4,439.2,215.5z M431.4,239.1
		c0.9-1.9,1.5-3.9,1.9-6c-1.3,1.1-2.5,2.3-3.5,3.7c-0.6,0.8-1,1.9-1.1,2.9c0,0.3,0.1,0.6,0.2,0.9c0.1,0.2,0.4,0.4,0.7,0.3
		C430.2,240.9,430.8,240.3,431.4,239.1z"/>
	<path class="st3" d="M444.6,229.9c-0.5-0.4-0.8-1-0.8-1.7c0-0.5,0.2-1,0.6-1.4c0.5-0.4,1.1-0.6,1.7-0.6c0.3,0,0.6,0,1,0.1
		c0.4,0.1,0.6,0.1,0.8,0.1c0-0.5-0.1-1-0.4-1.5c-0.2-0.5-0.5-0.9-0.8-1.4c-0.3-0.4-0.6-0.8-0.9-1.2c-0.5,1.1-1.2,2.1-1.9,3
		c-0.6,0.8-1.3,1.6-2.1,2.3c-0.3,0.3-0.7,0.5-1.2,0.6c-0.3,0-0.6-0.1-0.8-0.3c-0.2-0.2-0.3-0.6-0.3-0.9c0-0.4,0.2-0.8,0.4-1.1
		l0.4-0.5c0.9-1.1,1.8-2.3,2.6-3.5c0.4-0.7,0.8-1.4,1.1-2.1c0.4-0.8,0.9-2,1.5-3.4c0.4-0.9,1.5-1.5,2.5-1.3c0.4,0,0.8,0,1.2,0.2
		c0.2,0.1,0.3,0.3,0.3,0.5c0,0.2-0.1,0.4-0.1,0.6c-0.1,0.3-0.2,0.5-0.3,0.8c-0.3,0.6-0.5,1.2-0.6,1.9c0,0.4,0.1,0.7,0.3,1
		c0.3,0.5,0.6,1,1,1.4c0.5,0.7,1.1,1.4,1.5,2.2c0.3,0.6,0.5,1.3,0.5,2c0,0.9-0.2,1.7-0.6,2.5c-0.4,0.8-1,1.4-1.7,1.9
		c-0.7,0.5-1.6,0.7-2.5,0.7C446.2,230.7,445.3,230.4,444.6,229.9z"/>
	<path class="st3" d="M478.5,223.3c0.2,0.3,0.3,0.7,0.2,1c0,0.4-0.1,0.8-0.2,1.1c-0.2,0.3-0.4,0.5-0.7,0.7c-1.8,1.2-3.1,2.1-3.9,2.7
		l-2,1.3c-0.5,3.5-1.6,6.9-3.1,10.1c-1.3,2.4-2.9,3.7-4.8,3.7c-1,0-1.9-0.3-2.6-1c-0.7-0.7-1-1.6-1-2.6c0.1-1.7,0.7-3.4,1.7-4.7
		c1.9-2.4,4.1-4.5,6.5-6.2l0.2-1.2c-0.3,0.5-0.8,1-1.4,1.3c-0.5,0.3-1.1,0.4-1.7,0.5c-1.2,0-2.3-0.5-3.1-1.4c-0.8-1-1.2-2.3-1.2-3.7
		c0-1.6,0.4-3.2,1.2-4.7c0.7-1.4,1.8-2.6,3-3.6c1.2-0.9,2.6-1.3,4-1.3c0.3,0,0.7,0.1,0.9,0.3c0.2,0.3,0.3,0.6,0.4,0.9
		c0.4-0.1,0.9-0.1,1.4-0.1c0.4,0,0.8,0,1.1,0.2c0.3,0.2,0.4,0.6,0.3,0.9c0,0.2,0,0.4,0,0.6c-0.1,0.7-0.3,2.3-0.8,4.9
		c-0.1,0.5-0.2,1-0.3,1.6s-0.2,1.2-0.3,1.9c1.6-1.2,3.1-2.3,4.6-3.3c0.2-0.1,0.5-0.2,0.7-0.2C478.1,222.9,478.4,223.1,478.5,223.3z
		 M466.1,239c0.9-1.9,1.5-3.9,1.9-5.9c-1.3,1.1-2.5,2.3-3.4,3.7c-0.6,0.8-1,1.8-1.1,2.9c0,0.3,0.1,0.6,0.2,0.9
		c0.1,0.2,0.4,0.4,0.7,0.3C464.9,240.9,465.5,240.3,466.1,239z M468.3,226c0.5-0.7,0.8-1.6,0.9-2.5l1-5.3c-0.9,0-1.7,0.4-2.4,1
		c-0.8,0.7-1.4,1.5-1.7,2.5c-0.4,1-0.7,2.2-0.7,3.3c0,0.5,0.1,1,0.4,1.4c0.3,0.3,0.7,0.5,1.1,0.5C467.5,226.8,468,226.5,468.3,226z"
		/>
	<path class="st3" d="M493.5,220.7c0.2,0.3,0.2,0.7,0.2,1c0,1-0.3,1.6-0.9,1.8c-1.3,0.4-2.7,0.7-4.1,0.7c-0.3,1.6-1.1,3.1-2.3,4.2
		c-1.1,1-2.5,1.6-3.9,1.6c-1.1,0-2.2-0.3-3.2-0.9c-0.9-0.6-1.6-1.4-2-2.4c-0.5-1-0.7-2.1-0.7-3.2c0-1.5,0.3-2.9,0.9-4.2
		c0.6-1.2,1.4-2.2,2.5-2.9c1-0.7,2.3-1,3.5-1c1.4-0.1,2.8,0.5,3.8,1.6c1,1.1,1.6,2.5,1.7,4c1.2-0.1,2.3-0.3,3.5-0.6
		c0.1,0,0.3-0.1,0.4-0.1C493.1,220.3,493.4,220.4,493.5,220.7z M484.4,225.9c0.5-0.7,0.9-1.5,1-2.3c-0.6-0.4-1.1-1-1.5-1.7
		c-0.3-0.7-0.5-1.5-0.5-2.2c0-0.3,0-0.7,0.1-1h-0.2c-0.8,0-1.6,0.5-2.1,1.2c-0.6,1-0.9,2.2-0.8,3.4c-0.1,0.9,0.2,1.8,0.7,2.6
		c0.3,0.5,0.9,0.9,1.6,0.9C483.4,226.7,484,226.4,484.4,225.9L484.4,225.9z"/>
	<path class="st3" d="M507.6,220.7c0.2,0.3,0.2,0.7,0.2,1c0,1-0.3,1.6-0.9,1.8c-1.3,0.4-2.7,0.7-4.1,0.7c-0.3,1.6-1.1,3.1-2.3,4.2
		c-1.1,1-2.5,1.6-3.9,1.6c-1.1,0-2.2-0.3-3.2-0.9c-0.9-0.6-1.6-1.4-2-2.4c-0.5-1-0.7-2.1-0.7-3.2c0-1.5,0.3-2.9,0.9-4.2
		c0.5-1.2,1.4-2.2,2.5-2.9c1-0.7,2.3-1,3.5-1c1.4-0.1,2.8,0.5,3.8,1.6c1,1.1,1.6,2.5,1.7,4c1.2-0.1,2.3-0.3,3.5-0.6
		c0.1,0,0.3-0.1,0.4-0.1C507.3,220.3,507.5,220.4,507.6,220.7z M498.5,225.9c0.5-0.7,0.9-1.5,1-2.3c-0.6-0.4-1.1-1-1.5-1.7
		c-0.3-0.7-0.5-1.5-0.5-2.2c0-0.3,0-0.7,0.1-1h-0.2c-0.8,0-1.6,0.5-2.1,1.2c-0.6,1-0.9,2.2-0.8,3.4c-0.1,0.9,0.2,1.8,0.7,2.6
		c0.3,0.5,0.9,0.9,1.6,0.9C497.5,226.7,498.1,226.4,498.5,225.9z"/>
	<path class="st3" d="M517.6,227.9c0.1,0.3,0.1,0.6,0.1,0.8c0,0.9-0.6,1.4-1.7,1.4c-0.5,0-1.1-0.2-1.5-0.5c-0.5-0.6-0.8-1.3-0.9-2
		v-0.1c-0.6,0.8-1.3,1.5-2.1,2c-0.7,0.3-1.4,0.5-2.2,0.5c-1.2,0-2.3-0.5-3.1-1.4c-0.8-1-1.3-2.3-1.2-3.7c0-1.6,0.3-3.2,1-4.6
		c0.7-1.4,1.7-2.6,2.9-3.5c1.2-0.9,2.6-1.5,4.1-1.6c0.3-3.5,1.1-6.9,2.2-10.2c1.1-2.9,2.6-4.3,4.4-4.3c0.9,0,1.7,0.5,2.2,1.2
		c0.7,1.1,1,2.4,0.9,3.7c-0.1,2.7-0.7,5.4-1.7,8c-1.2,3.2-2.7,6.4-4.4,9.4C516.8,224.6,517.2,226.3,517.6,227.9z M511.5,226.4
		c0.6-0.5,1.1-1.1,1.5-1.8c-0.2-1.6-0.3-3.1-0.3-4.7c0-0.6,0-1.1,0-1.5c-1.2,0.4-2.2,1.2-2.8,2.3c-0.7,1.2-1.1,2.5-1.1,3.9
		c0,1.5,0.5,2.3,1.5,2.3C510.8,226.8,511.2,226.7,511.5,226.4z M517.6,208.3c-0.6,3.3-0.9,6.6-1.1,10c2.3-5,3.4-9,3.4-12.1
		c0-0.6,0-1.2-0.2-1.8c-0.1-0.4-0.3-0.7-0.5-0.7C518.7,203.7,518.1,205.2,517.6,208.3z"/>
	<path class="st3" d="M522.1,229.2c-0.5-0.5-0.7-1.3-0.7-2c0-0.8,0.2-1.6,0.8-2.2c1.2-1.1,3-1.1,4.3-0.2c0.5,0.5,0.8,1.3,0.7,2
		c0,0.8-0.2,1.6-0.8,2.3c-0.6,0.6-1.4,0.9-2.2,0.9C523.4,230,522.6,229.7,522.1,229.2z"/>
	<path class="st3" d="M561.2,224c0.3,0,0.6,0.1,0.8,0.4c0.2,0.3,0.3,0.6,0.2,1c0,0.6-0.1,1.1-0.5,1.6c-0.4,0.5-0.9,0.9-1.5,1.2
		c-1.5,0.7-3.1,1.1-4.7,1.4c-1.9,0.3-3.8,0.5-5.7,0.5c-2.2,0.1-4.4-0.2-6.5-0.9c-1.5-0.4-2.9-1.3-3.9-2.4c-0.8-1-1.3-2.2-1.3-3.5
		c0-1.7,0.6-3.3,1.7-4.5c1.4-1.4,3.1-2.3,5.1-2.7c-1.1-0.3-2.1-0.9-2.8-1.9c-0.7-0.9-1-1.9-1-3c0-1.5,0.5-2.9,1.4-4
		c1-1.2,2.3-2.1,3.8-2.7c1.7-0.6,3.5-1,5.2-0.9c2.6,0,4.5,0.6,5.8,1.7c1.3,1.1,2,2.6,1.9,4.3c0.1,1-0.2,2.1-0.7,3
		c-0.4,0.7-1.1,1.1-1.9,1.1c-0.5,0-1-0.1-1.4-0.4c-0.3-0.3-0.5-0.7-0.5-1.2c0-0.4,0.1-0.8,0.2-1.2c0.1-0.5,0.1-0.9,0.2-1.4
		c0-0.7-0.3-1.4-0.8-1.8c-0.8-0.5-1.8-0.8-2.8-0.7c-1.5-0.1-3,0.3-4.2,1.1c-1,0.7-1.6,1.8-1.6,3c0,0.9,0.4,1.8,1.2,2.4
		c1.2,0.7,2.5,1.1,3.9,1c0.4,0,0.7,0.1,1,0.3c0.2,0.3,0.3,0.6,0.3,0.9c0,1.4-0.6,2.1-1.9,2.1c-1.4,0-2.9,0.2-4.3,0.7
		c-1,0.3-1.8,0.9-2.5,1.7c-0.5,0.6-0.8,1.4-0.8,2.2c0,1.2,0.7,2.4,1.8,2.9c1.8,0.8,3.7,1.1,5.7,1c1.8,0,3.7-0.2,5.4-0.6
		c1.7-0.3,3.3-0.8,4.9-1.5C560.7,224.1,560.9,224,561.2,224z"/>
	<path class="st3" d="M563.8,229.9c-0.5-0.4-0.8-1-0.8-1.7c0-0.5,0.2-1,0.6-1.4c0.5-0.4,1.1-0.6,1.7-0.6c0.3,0,0.7,0,1,0.1
		c0.4,0.1,0.6,0.1,0.8,0.1c0-0.5-0.1-1-0.4-1.5c-0.2-0.5-0.5-1-0.8-1.4c-0.3-0.4-0.6-0.8-0.9-1.2c-0.5,1.1-1.2,2.1-1.9,3
		c-0.6,0.8-1.3,1.6-2.1,2.3c-0.3,0.3-0.7,0.5-1.2,0.6c-0.3,0-0.6-0.1-0.8-0.3c-0.2-0.2-0.3-0.6-0.3-0.9c0-0.4,0.2-0.8,0.4-1.1
		l0.4-0.5c0.9-1.1,1.8-2.3,2.6-3.5c0.3-0.6,0.8-1.4,1.2-2.4s0.9-2,1.4-3.1c0.4-0.9,1.4-1.5,2.4-1.4c0.4,0,0.8,0,1.2,0.2
		c0.2,0.1,0.3,0.3,0.3,0.5c0,0.2-0.1,0.4-0.1,0.6c-0.1,0.3-0.2,0.6-0.3,0.8c-0.3,0.6-0.5,1.2-0.6,1.9c0,0.4,0.1,0.7,0.3,1
		c0.3,0.5,0.6,1,1,1.4c0.6,0.7,1.1,1.4,1.5,2.2c0.3,0.6,0.5,1.3,0.5,2c0,0.2,0,0.5-0.1,0.9c1.4-0.7,2.6-1.8,3.6-3.1
		c0.2-0.3,0.5-0.4,0.8-0.4c0.3,0,0.5,0.1,0.6,0.4c0.2,0.3,0.2,0.7,0.2,1c0,0.7-0.2,1.4-0.6,1.9c-0.8,1.1-1.8,2-3,2.6
		c-1.1,0.5-2.3,0.8-3.5,0.8c-0.8,0.7-1.9,1.1-2.9,1.1C565.4,230.6,564.5,230.4,563.8,229.9z"/>
	<path class="st3" d="M579,218.3c0,1-0.1,1.8-0.1,2.4c0,1.2,0.1,2.3,0.2,3.5c0.1,0.7,0.4,1.3,0.8,1.8c0.4,0.4,0.9,0.6,1.5,0.5
		c0.4,0,0.8-0.1,1.2-0.3c0.5-0.2,0.9-0.5,1.2-0.8c0.2-0.2,0.4-0.3,0.7-0.3c0.3,0,0.5,0.2,0.6,0.4c0.2,0.3,0.2,0.7,0.2,1
		c0,0.4-0.1,0.8-0.2,1.1c-0.1,0.4-0.4,0.7-0.7,0.9c-1,0.9-2.3,1.3-3.7,1.3c-1.8,0.1-3.5-0.9-4.3-2.5c-1-2-1.5-4.2-1.4-6.4
		c0-0.9,0-1.8,0.1-2.8H574c-0.4,0.1-0.9-0.1-1.3-0.3c-0.2-0.3-0.4-0.7-0.3-1.1c0-1.2,0.5-1.7,1.4-1.7h1.8c0.3-2.1,0.8-4.2,1.6-6.2
		c0.6-1.7,1.5-3.2,2.6-4.5c0.8-1,2-1.6,3.3-1.7c0.8,0,1.6,0.4,2,1.2c0.5,0.9,0.8,1.9,0.7,2.9c0,3.2-1.5,6.3-4,8.4h3.5
		c0.3,0,0.5,0.1,0.7,0.2c0.2,0.2,0.3,0.5,0.2,0.8c0,1.4-1.2,2.1-3.5,2.1L579,218.3z M581.2,206.9c-0.5,1-0.8,2.1-1.1,3.2
		c-0.4,1.5-0.7,3-0.8,4.6c1.2-1,2.1-2.2,2.7-3.5c0.6-1.1,0.9-2.3,0.9-3.6c0-1.2-0.2-1.8-0.7-1.8C582,205.7,581.7,206.1,581.2,206.9
		L581.2,206.9z"/>
	<path class="st3" d="M588.2,229.2c-0.5-0.5-0.7-1.3-0.7-2c0-0.8,0.2-1.6,0.8-2.2c1.2-1.1,3-1.1,4.3-0.2c0.5,0.5,0.8,1.3,0.7,2
		c0,0.8-0.2,1.7-0.8,2.3c-0.6,0.6-1.4,0.9-2.2,0.9C589.5,230,588.7,229.7,588.2,229.2z"/>
	<path class="st3" d="M618.9,226.8c0.2,0.3,0.4,0.7,0.3,1.1c0,0.5-0.2,1-0.5,1.4c-0.3,0.4-0.8,0.7-1.4,0.6c-1,0-2.5-0.1-4.4-0.2
		l-2.2-0.1c-1.1-0.1-1.9-0.1-2.5-0.1c-0.4,0-0.8,0.1-1.2,0.3c-0.1,0-0.3,0.1-0.6,0.2c-0.2,0.1-0.5,0.1-0.8,0.1
		c-0.3,0-0.6-0.2-0.8-0.5c-0.2-0.4-0.4-0.9-0.3-1.3c0-0.5,0.1-1.1,0.5-1.5c0.4-0.4,0.9-0.8,1.5-1c1.4-0.6,2.8-1.4,4-2.4
		c1.2-0.9,2.2-1.9,3-3.1c0.7-0.9,1.1-2,1.1-3.2c0.1-0.6-0.1-1.3-0.5-1.8c-0.5-0.4-1.1-0.6-1.7-0.6c-0.8,0-1.6,0.2-2.2,0.7
		c-0.6,0.5-0.9,1.3-0.8,2.1c0.1,0.9-0.5,1.7-1.4,1.8c-0.2,0-0.3,0-0.5,0c-0.5,0-1-0.1-1.3-0.5c-0.3-0.4-0.5-0.9-0.5-1.4
		c0-1,0.3-2,0.8-2.8c0.6-0.9,1.4-1.6,2.4-2.1c1.2-0.6,2.6-0.8,3.9-0.8c1.6-0.1,3.1,0.4,4.4,1.4c1.1,1,1.7,2.4,1.6,3.9
		c-0.1,1.8-0.8,3.6-2.1,4.9c-1.6,1.9-3.7,3.5-5.9,4.5l7.1-0.1C618.3,226.3,618.6,226.5,618.9,226.8z"/>
	<path class="st3" d="M623.9,228c-1.2-1.6-1.8-3.6-1.7-5.7c0-1.9,0.3-3.8,1-5.5c0.6-1.5,1.5-2.8,2.7-3.7c1.2-0.9,2.6-1.4,4.1-1.4
		c1.8-0.1,3.5,0.6,4.7,2c1.2,1.6,1.8,3.6,1.7,5.7c0,1.9-0.3,3.8-1,5.5c-0.6,1.5-1.5,2.8-2.7,3.7c-1.2,0.9-2.6,1.4-4.1,1.3
		C626.8,230.1,625,229.3,623.9,228z M631.5,224.7c0.7-1.6,1.1-3.3,1-5c0.1-1.1-0.2-2.3-0.7-3.3c-0.4-0.7-1.2-1.2-2.1-1.1
		c-1.2,0-2.2,0.7-2.7,1.8c-0.7,1.6-1.1,3.3-1,5.1c-0.1,1.1,0.2,2.3,0.7,3.3c0.4,0.7,1.2,1.2,2.1,1.1
		C630,226.4,631.1,225.7,631.5,224.7L631.5,224.7z"/>
	<path class="st3" d="M642.3,229.5c-0.4-0.4-0.6-0.9-0.6-1.5v-0.3c0.2-2.1,0.5-4.3,0.8-6.7s0.6-4.1,0.8-5.3l-2.4,0.7l-0.4,0.1
		c-0.4,0-0.7-0.2-0.9-0.5c-0.2-0.3-0.3-0.7-0.3-1.1v-0.3c0-0.4,0.1-0.7,0.4-1c0.4-0.3,0.8-0.5,1.3-0.7c0.9-0.3,1.7-0.6,2.7-0.8
		l1.3-0.3c0.4-0.1,0.8-0.1,1.2-0.2c0.9-0.1,1.7,0.5,1.8,1.4c0,0.1,0,0.3,0,0.4c0,0.3,0,0.5-0.1,0.8c-0.3,1.6-1,6.2-1.9,13.8
		c0,1.1-1,2-2.1,1.9c0,0-0.1,0-0.1,0C643.2,230,642.7,229.8,642.3,229.5z"/>
	<path class="st3" d="M664.2,224.8c0,1-0.3,1.9-0.9,2.7c-0.7,0.8-1.5,1.5-2.5,1.8c-1.2,0.5-2.5,0.7-3.8,0.7
		c-1.6,0.1-3.3-0.3-4.7-1.2c-1.1-0.7-1.7-2-1.7-3.3c0-0.9,0.3-1.7,0.8-2.5c0.7-0.9,1.6-1.6,2.6-2.1c-0.7-0.4-1.3-1.1-1.7-1.8
		c-0.4-0.7-0.6-1.4-0.6-2.2c-0.1-1.5,0.6-3,1.9-3.9c1.5-1,3.3-1.5,5.1-1.4c1.5-0.1,3,0.3,4.2,1.1c1,0.7,1.6,1.9,1.6,3.1
		c0,0.9-0.3,1.8-0.8,2.6c-0.7,0.9-1.6,1.6-2.6,2.1C663.2,221.6,664.2,223,664.2,224.8z M659.5,226.5c0.5-0.3,0.8-0.8,0.8-1.4
		c0-0.5-0.3-1-0.7-1.3c-0.8-0.6-1.7-1.1-2.7-1.5c-0.8,0.3-1.4,0.7-2,1.3c-0.4,0.4-0.5,0.9-0.5,1.5c0,0.6,0.3,1.1,0.8,1.3
		c0.6,0.4,1.3,0.5,2.1,0.5C658,227,658.8,226.8,659.5,226.5z M656.4,215.2c-0.5,0.3-0.8,0.9-0.8,1.6c0,0.9,0.8,1.8,2.3,2.5
		c0.8-0.4,1.6-0.8,2.2-1.5c0.4-0.4,0.6-0.9,0.6-1.4c0-1.1-0.8-1.7-2.3-1.7C657.7,214.7,657,214.9,656.4,215.2z"/>
</g>
</svg>
